<?xml version="1.0" encoding="UTF-8"?>
<!-- Generator: visioncortex VTracer 0.6.3 -->
<svg version="1.1" xmlns="http://www.w3.org/2000/svg" width="1280" height="964">
<path d="M0 0 C422.4 0 844.8 0 1280 0 C1280 318.12 1280 636.24 1280 964 C857.6 964 435.2 964 0 964 C0 645.88 0 327.76 0 0 Z " fill="#FCFCFC" transform="translate(0,0)"/>
<path d="M0 0 C0.33 0.66 0.66 1.32 1 2 C1.66 1.67 2.32 1.34 3 1 C10.37 0.6 17.82 0.99 25.19 1.31 C26.3 1.35 26.3 1.35 27.44 1.38 C29.54 1.49 29.54 1.49 33 2 C35.04 5.05 35.25 5.64 35.25 9.07 C35.26 9.9 35.27 10.73 35.27 11.59 C35.27 12.5 35.26 13.41 35.26 14.35 C35.26 15.32 35.27 16.29 35.27 17.29 C35.28 20.56 35.28 23.82 35.27 27.09 C35.28 29.43 35.28 31.76 35.29 34.1 C35.3 40.45 35.3 46.81 35.3 53.17 C35.3 59.15 35.31 65.13 35.31 71.11 C35.32 83.68 35.32 96.26 35.31 108.83 C35.31 120.32 35.32 131.8 35.34 143.29 C35.36 155.09 35.37 166.89 35.36 178.69 C35.36 185.32 35.36 191.94 35.38 198.56 C35.39 204.8 35.39 211.03 35.38 217.27 C35.37 219.55 35.38 221.83 35.38 224.12 C35.43 238.16 34.96 250.08 29 263 C27.97 265.66 26.99 268.33 26 271 C24.68 271 23.36 271 22 271 C22.49 272.27 22.49 272.27 22.99 273.56 C24.07 277.24 24.24 280.2 24.23 284.03 C24.23 284.7 24.23 285.36 24.23 286.05 C24.23 288.2 24.21 290.35 24.19 292.5 C24.18 293.98 24.17 295.46 24.17 296.94 C24.1 308.64 23.7 320.32 23 332 C17.38 332.25 17.38 332.25 14 330 C13.63 327.77 13.63 327.77 13.63 324.96 C13.62 323.38 13.62 323.38 13.61 321.77 C13.62 320.63 13.62 319.49 13.63 318.31 C13.61 315.9 13.59 313.48 13.58 311.07 C13.57 307.26 13.56 303.45 13.56 299.64 C13.56 295.97 13.53 292.29 13.5 288.62 C13.51 287.49 13.52 286.36 13.53 285.2 C13.46 278.2 12.35 273.15 9 267 C7.72 264.08 6.91 261.57 6.25 258.44 C4.12 249.69 -0.26 242 -6.78 235.82 C-8 234 -8 234 -7.76 231.41 C-7 229 -7 229 -5.94 226.81 C-4.94 223.83 -5.13 222.38 -5.44 219.31 C-5.57 215.62 -5.23 214.31 -2.97 211.3 C-1.32 209.6 0.38 207.93 2.13 206.32 C4.33 204.13 4.33 204.13 3.78 201.21 C3.39 200.11 3.39 200.11 3 199 C2.01 198.67 1.02 198.34 0 198 C-0.38 195.75 -0.38 195.75 0 193 C3 190.69 3 190.69 6 189 C4.65 184.12 2.28 182.51 -2 180 C-1.67 178.35 -1.34 176.7 -1 175 C-0.01 174.67 0.98 174.34 2 174 C2 172.35 2 170.7 2 169 C1.34 169 0.68 169 0 169 C0 168.34 0 167.68 0 167 C-2.64 167 -5.28 167 -8 167 C-8.66 165.68 -9.32 164.36 -10 163 C-9.34 162.01 -8.68 161.02 -8 160 C-8.32 156.36 -8.32 156.36 -9 153 C-9.7 153.17 -10.4 153.34 -11.12 153.51 C-12.03 153.71 -12.94 153.92 -13.88 154.12 C-15.23 154.44 -15.23 154.44 -16.62 154.76 C-17.8 154.88 -17.8 154.88 -19 155 C-21.7 152.3 -22.04 149.65 -23 146 C-23.33 145.01 -23.66 144.02 -24 143 C-27.62 144.73 -30.88 146.48 -34 149 C-34 148.34 -34 147.68 -34 147 C-34.66 147 -35.32 147 -36 147 C-36.84 145.3 -36.84 145.3 -37.69 143.56 C-39.42 140.45 -39.42 140.45 -42.75 139.06 C-43.49 139.04 -44.24 139.02 -45 139 C-45.31 140.13 -45.62 141.27 -45.94 142.44 C-47 146 -47 146 -48 147 C-50.31 147.31 -50.31 147.31 -53 147 C-54.37 145.71 -55.71 144.38 -57 143 C-60.02 142.67 -60.02 142.67 -61.75 144.56 C-63.5 147.97 -62.77 150.34 -62 154 C-63.94 154.56 -63.94 154.56 -66 155 C-66.33 154.67 -66.66 154.34 -67 154 C-69.96 153.75 -69.96 153.75 -73 154 C-75.32 155.88 -75.32 155.88 -75.19 158.94 C-75.13 162.04 -75.13 162.04 -74 165 C-77.3 165.99 -80.6 166.98 -84 168 C-84.5 172.77 -84.5 172.77 -82.44 175.06 C-81 177 -81 177 -80.94 179.06 C-82.55 182.01 -84.99 182.72 -88 184 C-88 185.65 -88 187.3 -88 189 C-87.36 189.21 -86.72 189.41 -86.06 189.62 C-84 191 -84 191 -83.25 194.12 C-83.17 195.07 -83.09 196.02 -83 197 C-83.66 197 -84.32 197 -85 197 C-85.33 197.99 -85.66 198.98 -86 200 C-86.66 200.33 -87.32 200.66 -88 201 C-87.41 204.25 -86.42 205.97 -84.19 208.38 C-83.65 208.98 -83.12 209.59 -82.57 210.21 C-82.05 210.8 -81.53 211.39 -81 212 C-76.99 216.83 -76.99 216.83 -77.02 220.08 C-77.29 222.06 -77.64 224.03 -78 226 C-77.67 226.66 -77.34 227.32 -77 228 C-76.62 231.31 -76.62 231.31 -77 235 C-79.19 237.5 -79.19 237.5 -82 240 C-86.81 245.51 -88.34 250.92 -90.11 257.99 C-91 261 -91 261 -93 263 C-92.68 265.11 -92.68 265.11 -92 267 C-95.36 270.05 -97.84 270.46 -102.31 270.69 C-103.54 270.75 -104.76 270.82 -106.03 270.88 C-112.35 271.07 -118.67 271.08 -125 271 C-126.64 266.3 -127.93 261.58 -129.12 256.75 C-129.4 255.67 -129.4 255.67 -129.68 254.57 C-131 249.25 -131 249.25 -131 247 C-131.66 247 -132.32 247 -133 247 C-134.11 245.43 -134.11 245.43 -135.31 243.31 C-137.03 240.4 -138.32 238.7 -140.88 236.38 C-141.58 235.59 -142.28 234.81 -143 234 C-142.7 231.35 -142.7 231.35 -142 228 C-141.83 226.72 -141.66 225.44 -141.49 224.12 C-139.71 211.7 -139.71 211.7 -135.31 208.31 C-134.7 207.91 -134.09 207.52 -133.45 207.11 C-131.66 206.01 -131.66 206.01 -131.56 203.12 C-131.71 202.42 -131.85 201.72 -132 201 C-134.31 199.68 -136.62 198.36 -139 197 C-139 195.35 -139 193.7 -139 192 C-137.35 191.34 -135.7 190.68 -134 190 C-134.52 187.24 -135.11 184.67 -136 182 C-138.02 181.27 -138.02 181.27 -140 181 C-140 179.35 -140 177.7 -140 176 C-138.68 175.34 -137.36 174.68 -136 174 C-136.51 171.83 -137 170 -138 168 C-139.88 166.88 -139.88 166.88 -142.06 165.88 C-142.8 165.52 -143.53 165.17 -144.29 164.8 C-144.85 164.54 -145.42 164.27 -146 164 C-145.69 162.12 -145.69 162.12 -145 160 C-143.51 159.01 -143.51 159.01 -142 158 C-142.33 155.69 -142.66 153.38 -143 151 C-145.97 151.33 -148.94 151.66 -152 152 C-152.69 148.69 -152.69 148.69 -153 145 C-151.56 143.31 -151.56 143.31 -150 142 C-150 140.68 -150 139.36 -150 138 C-150.66 138 -151.32 138 -152 138 C-152 137.34 -152 136.68 -152 136 C-156.65 136.48 -156.65 136.48 -161 138 C-162.12 132.25 -162.12 132.25 -161 130 C-161.66 130 -162.32 130 -163 130 C-164.62 127.5 -164.62 127.5 -166 125 C-168.97 125.66 -171.94 126.32 -175 127 C-175.25 125.95 -175.5 124.9 -175.75 123.81 C-176.78 120.18 -178.35 117.74 -181 115 C-183.24 114.77 -183.24 114.77 -185.12 117 C-185.74 117.66 -186.36 118.32 -187 119 C-190.72 116.68 -193.61 114.71 -196 111 C-198.44 111.27 -198.44 111.27 -201 112 C-201.66 112.99 -202.32 113.98 -203 115 C-205.25 114.81 -205.25 114.81 -208 114 C-208.64 113.15 -209.28 112.31 -209.94 111.44 C-211.82 108.64 -211.82 108.64 -215.25 108.69 C-216.16 108.79 -217.07 108.89 -218 109 C-218.33 110.98 -218.66 112.96 -219 115 C-221.93 114.59 -223.67 114.27 -226 112.38 C-227.95 110.79 -227.95 110.79 -230.56 110.81 C-233.52 112.26 -233.69 113.06 -234.81 116.06 C-235.23 117.37 -235.63 118.68 -236 120 C-236.8 119.42 -236.8 119.42 -237.61 118.84 C-238.32 118.35 -239.02 117.87 -239.75 117.38 C-240.45 116.89 -241.14 116.4 -241.86 115.9 C-243.98 114.73 -243.98 114.73 -246.14 115.73 C-250.22 118.52 -250.78 121.31 -252 126 C-255.37 125.45 -257.08 124.95 -260 123 C-260.45 123.83 -260.91 124.65 -261.38 125.5 C-261.91 126.33 -262.45 127.15 -263 128 C-263.66 128 -264.32 128 -265 128 C-264.67 130.97 -264.34 133.94 -264 137 C-267 138 -267 138 -269.44 137.44 C-272.41 136.93 -273.49 137.42 -276 139 C-276.22 142.86 -275.6 145.49 -274 149 C-276.95 151.95 -279.96 152.09 -284 153 C-284.64 154.9 -284.64 154.9 -285 157 C-284.5 157.64 -284.01 158.28 -283.5 158.94 C-282 161 -282 161 -282.31 163.75 C-282.65 164.86 -282.65 164.86 -283 166 C-285.31 166.33 -287.62 166.66 -290 167 C-290.33 168.98 -290.66 170.96 -291 173 C-290.04 173.37 -290.04 173.37 -289.06 173.75 C-287 175 -287 175 -286.25 177.12 C-286.17 177.74 -286.09 178.36 -286 179 C-286.99 179.7 -287.98 180.4 -289 181.12 C-291.43 183.17 -291.94 183.7 -292.62 186.94 C-291.87 190.65 -290.1 192.88 -288 196 C-288.25 198.38 -288.25 198.38 -289 200 C-291.31 200 -293.62 200 -296 200 C-295.96 202.33 -295.96 202.33 -295 205 C-293.51 206.23 -292.02 207.45 -290.5 208.64 C-287.82 211.07 -287.01 213.57 -286 217 C-285.89 219.58 -285.94 222.12 -286.03 224.7 C-285.99 227.48 -285.11 229.48 -284 232 C-284.45 235.27 -285.62 237.03 -287.81 239.44 C-288.35 240.05 -288.89 240.66 -289.45 241.29 C-290.69 242.65 -291.94 244.02 -293.19 245.38 C-295.3 248.43 -296.27 251.32 -297.34 254.86 C-298 257 -298 257 -299.25 259.81 C-300.23 261.96 -300.23 261.96 -299.38 264 C-299 266 -299 266 -300.69 268.69 C-302.95 270.95 -303.87 271.79 -307 272 C-307.66 271.67 -308.32 271.34 -309 271 C-310.81 270.85 -312.63 270.75 -314.45 270.68 C-315.52 270.64 -316.6 270.6 -317.71 270.56 C-319.4 270.5 -319.4 270.5 -321.12 270.44 C-322.26 270.39 -323.4 270.35 -324.57 270.31 C-327.38 270.2 -330.19 270.1 -333 270 C-334.94 265.71 -336.38 261.82 -337.31 257.19 C-339.1 249.77 -342.12 242.91 -348.38 238.25 C-351 236 -351 236 -351.56 232.94 C-351 230 -351 230 -349.44 227.94 C-347.71 226.06 -347.71 226.06 -348.25 223.44 C-348.81 221.62 -349.4 219.81 -350 218 C-349.35 217.44 -349.35 217.44 -348.69 216.88 C-346.82 214.98 -346.82 214.98 -345.62 212.06 C-343.84 208.7 -342.14 207.1 -339 205 C-338.34 205 -337.68 205 -337 205 C-337 204.01 -337 203.02 -337 202 C-337.66 202 -338.32 202 -339 202 C-340.02 201.02 -341.02 200.02 -342 199 C-342.66 198.67 -343.32 198.34 -344 198 C-344 196.35 -344 194.7 -344 193 C-342.35 192.34 -340.7 191.68 -339 191 C-339 188.03 -339 185.06 -339 182 C-340.98 182 -342.96 182 -345 182 C-345.75 180.25 -345.75 180.25 -346 178 C-344.67 176.67 -343.33 175.33 -342 174 C-341.61 170.84 -341.99 169.04 -343 166 C-347.65 166.48 -347.65 166.48 -352 168 C-352.62 166.31 -352.62 166.31 -353 164 C-352.44 162.82 -352.44 162.82 -351.88 161.62 C-350.63 158.86 -350.63 158.86 -352.38 155.69 C-352.91 154.8 -353.45 153.91 -354 153 C-355.28 153.21 -356.56 153.41 -357.88 153.62 C-360.05 153.98 -360.05 153.98 -362 154 C-365.01 150.99 -364.6 148.18 -365 144 C-369.57 144.55 -373.67 145.42 -378 147 C-383 141.25 -383 141.25 -383 139 C-387.31 140.68 -387.31 140.68 -390.06 144.12 C-390.37 144.74 -390.68 145.36 -391 146 C-393.62 146.75 -393.62 146.75 -396 147 C-396.66 145.68 -397.32 144.36 -398 143 C-399.98 143 -401.96 143 -404 143 C-404.11 143.7 -404.22 144.4 -404.33 145.12 C-404.49 146.03 -404.65 146.94 -404.81 147.88 C-405.04 149.23 -405.04 149.23 -405.27 150.62 C-406 153 -406 153 -409 155 C-409.78 154.84 -410.57 154.67 -411.38 154.5 C-414.57 153.89 -416.12 154.6 -419 156 C-418.51 159.12 -418 162 -417 165 C-417.71 165.17 -418.42 165.34 -419.15 165.52 C-420.53 165.88 -420.53 165.88 -421.94 166.25 C-422.85 166.48 -423.77 166.71 -424.71 166.95 C-427.19 167.77 -427.19 167.77 -427.82 170.11 C-427.91 171.05 -427.91 171.05 -428 172 C-427.01 172.66 -426.02 173.32 -425 174 C-425 174.99 -425 175.98 -425 177 C-424.34 177 -423.68 177 -423 177 C-423 177.66 -423 178.32 -423 179 C-424.43 180.29 -424.43 180.29 -426.31 181.62 C-426.93 182.07 -427.54 182.52 -428.18 182.98 C-430 184 -430 184 -433 184 C-432.23 186.99 -432.23 186.99 -431 190 C-430.01 190.33 -429.02 190.66 -428 191 C-427.25 193.12 -427.25 193.12 -427 196 C-428.27 198.04 -429.6 200.05 -431 202 C-431 202.99 -431 203.98 -431 205 C-430.28 205.56 -429.56 206.11 -428.81 206.69 C-424.89 209.91 -421.43 213.85 -420.72 219.05 C-420.75 221.04 -420.87 223.02 -421 225 C-420.77 227.36 -420.39 229.66 -420 232 C-419.34 232 -418.68 232 -418 232 C-418 232.66 -418 233.32 -418 234 C-418.66 234 -419.32 234 -420 234 C-420.19 234.7 -420.37 235.4 -420.56 236.12 C-422.01 239.03 -422.96 239.93 -425.44 241.88 C-431.89 247.18 -432.93 255.01 -435.04 262.79 C-435.82 265.41 -436.67 267.62 -438 270 C-440.64 270 -443.28 270 -446 270 C-446 270.66 -446 271.32 -446 272 C-444.79 271.97 -444.79 271.97 -443.56 271.94 C-441 272 -441 272 -440 273 C-439.9 274.71 -439.87 276.42 -439.87 278.13 C-439.86 279.79 -439.86 279.79 -439.86 281.47 C-439.87 282.68 -439.87 283.88 -439.88 285.12 C-439.88 286.36 -439.88 287.59 -439.88 288.85 C-439.95 303.24 -440.45 317.62 -441 332 C-443.97 332 -446.94 332 -450 332 C-452.17 327.65 -452.18 324.76 -451.98 320.08 C-451.94 318.91 -451.94 318.91 -451.9 317.72 C-451.82 315.23 -451.72 312.74 -451.62 310.25 C-451.42 304.61 -451.24 298.97 -451.07 293.33 C-451.02 291.79 -450.97 290.24 -450.91 288.69 C-450.82 286.52 -450.76 284.35 -450.71 282.17 C-450.67 280.93 -450.63 279.69 -450.59 278.41 C-451.08 274.31 -452.57 272.28 -455 269 C-455.82 266.45 -456.49 264.04 -457.06 261.44 C-457.51 259.52 -457.51 259.52 -457.97 257.56 C-458.13 256.84 -458.29 256.11 -458.45 255.37 C-458.83 253.74 -459.26 252.13 -459.74 250.52 C-462.83 239.44 -462.42 228.33 -462.39 216.91 C-462.39 214.59 -462.4 212.26 -462.4 209.94 C-462.42 203.67 -462.41 197.4 -462.4 191.13 C-462.4 184.56 -462.4 177.98 -462.41 171.41 C-462.41 159.69 -462.4 147.96 -462.39 136.24 C-462.37 125.61 -462.38 114.97 -462.39 104.34 C-462.41 91.98 -462.41 79.61 -462.4 67.25 C-462.4 60.71 -462.4 54.17 -462.41 47.63 C-462.42 41.49 -462.41 35.35 -462.39 29.21 C-462.39 26.96 -462.39 24.7 -462.4 22.44 C-462.41 19.37 -462.4 16.3 -462.38 13.23 C-462.39 12.33 -462.39 11.43 -462.4 10.5 C-462.39 9.68 -462.39 8.86 -462.38 8.02 C-462.38 7.31 -462.38 6.6 -462.38 5.87 C-461.88 3.41 -460.97 2.52 -459 1 C-456.15 0.64 -456.15 0.64 -452.72 0.67 C-451.49 0.68 -450.25 0.68 -448.98 0.69 C-447.04 0.72 -447.04 0.72 -445.06 0.75 C-443.77 0.76 -442.49 0.76 -441.16 0.77 C-431.62 0.85 -431.62 0.85 -427 2 C-426.67 34.01 -426.34 66.02 -426 99 C-285.09 99.33 -144.18 99.66 1 100 C0.67 99.34 0.34 98.68 0 98 C-0.09 94.92 -0.13 91.86 -0.11 88.78 C-0.11 87.82 -0.11 86.86 -0.11 85.88 C-0.11 82.71 -0.11 79.54 -0.1 76.37 C-0.1 74.17 -0.09 71.98 -0.09 69.78 C-0.09 64 -0.08 58.22 -0.07 52.43 C-0.06 46.54 -0.05 40.64 -0.05 34.74 C-0.04 23.16 -0.02 11.58 0 0 Z " fill="#C82429" transform="translate(848,478)"/>
<path d="M0 0 C2.31 2.3 2.96 3.7 3.37 6.95 C3.37 8.7 3.37 8.7 3.37 10.47 C3.37 11.45 3.37 11.45 3.38 12.45 C3.39 14.64 3.37 16.83 3.36 19.02 C3.36 20.6 3.36 22.19 3.37 23.77 C3.38 28.13 3.36 32.49 3.35 36.84 C3.34 41.54 3.34 46.24 3.34 50.93 C3.34 59.07 3.33 67.21 3.32 75.35 C3.29 87.12 3.28 98.89 3.28 110.66 C3.27 129.75 3.25 148.84 3.23 167.94 C3.2 186.49 3.18 205.04 3.16 223.58 C3.16 224.73 3.16 225.87 3.16 227.05 C3.16 232.78 3.15 238.52 3.15 244.25 C3.12 291.83 3.07 339.42 3 387 C0.27 388.37 -1.91 388.13 -4.96 388.15 C-6.21 388.15 -7.47 388.16 -8.75 388.16 C-10.13 388.17 -11.5 388.17 -12.87 388.17 C-14.27 388.17 -15.68 388.17 -17.08 388.18 C-20.02 388.18 -22.96 388.19 -25.9 388.19 C-29.67 388.19 -33.44 388.2 -37.21 388.22 C-40.11 388.23 -43.01 388.23 -45.91 388.23 C-47.3 388.23 -48.69 388.23 -50.08 388.24 C-52.02 388.25 -53.96 388.25 -55.91 388.24 C-57.01 388.24 -58.12 388.25 -59.26 388.25 C-62 388 -62 388 -65 386 C-65.38 383.63 -65.38 383.63 -65.38 380.59 C-65.39 379.44 -65.4 378.28 -65.4 377.09 C-65.39 375.17 -65.39 375.17 -65.39 373.21 C-65.39 371.85 -65.39 370.48 -65.4 369.12 C-65.42 365.36 -65.41 361.59 -65.4 357.83 C-65.4 353.77 -65.41 349.72 -65.42 345.67 C-65.44 338.64 -65.44 331.61 -65.44 324.58 C-65.44 314.41 -65.45 304.25 -65.48 294.08 C-65.51 277.59 -65.53 261.09 -65.54 244.6 C-65.54 243.61 -65.55 242.62 -65.55 241.6 C-65.55 237.6 -65.55 233.59 -65.56 229.59 C-65.56 218.57 -65.57 207.55 -65.59 196.53 C-65.59 195.55 -65.59 194.56 -65.59 193.55 C-65.61 177.11 -65.63 160.68 -65.66 144.25 C-65.68 134.11 -65.69 123.96 -65.7 113.82 C-65.7 106.87 -65.7 99.93 -65.72 92.98 C-65.73 88.97 -65.73 84.95 -65.72 80.94 C-65.72 77.27 -65.73 73.6 -65.74 69.93 C-65.74 67.97 -65.74 66.01 -65.73 64.04 C-65.74 62.88 -65.74 61.73 -65.75 60.53 C-65.75 59.53 -65.75 58.53 -65.75 57.49 C-65.83 54.75 -65.83 54.75 -68 52 C-70.74 51.76 -73.26 51.7 -76 51.78 C-76.79 51.79 -77.58 51.8 -78.4 51.8 C-80.93 51.83 -83.47 51.88 -86 51.94 C-88.53 51.99 -91.07 52.03 -93.6 52.06 C-95.18 52.08 -96.76 52.11 -98.34 52.15 C-100.22 52.18 -102.11 52.1 -104 52 C-106 50 -106 50 -106.24 47.9 C-106.24 47.03 -106.23 46.17 -106.23 45.27 C-106.23 43.8 -106.23 43.8 -106.23 42.3 C-106.22 41.24 -106.21 40.18 -106.2 39.09 C-106.19 38 -106.19 36.92 -106.19 35.8 C-106.18 32.32 -106.15 28.85 -106.12 25.38 C-106.11 23.02 -106.11 20.67 -106.1 18.32 C-106.08 12.55 -106.04 6.77 -106 1 C-104.21 1 -104.21 1 -102.39 1.01 C-91.16 1.03 -79.94 1.04 -68.71 1.05 C-62.94 1.06 -57.16 1.06 -51.39 1.08 C-45.82 1.09 -40.25 1.09 -34.68 1.09 C-32.56 1.1 -30.43 1.1 -28.31 1.11 C-25.33 1.11 -22.36 1.11 -19.38 1.11 C-18.5 1.12 -17.62 1.12 -16.71 1.12 C-11.16 1.12 -5.42 -0.71 0 0 Z " fill="#C82429" transform="translate(954,422)"/>
<path d="M0 0 C0.33 0.66 0.66 1.32 1 2 C35.98 2 70.96 2 107 2 C107 18.5 107 35 107 52 C93.8 52 80.6 52 67 52 C67.01 55.49 67.01 58.97 67.02 62.56 C67.06 98.54 66.95 134.51 66.78 170.48 C66.78 171.64 66.77 172.8 66.76 173.99 C66.68 190.83 66.6 207.67 66.52 224.51 C66.43 241.55 66.35 258.58 66.27 275.61 C66.24 282.38 66.2 289.15 66.17 295.92 C66.15 300.15 66.13 304.38 66.11 308.6 C66.1 310.65 66.09 312.7 66.08 314.75 C66.01 326.29 66 337.84 66.06 349.38 C66.07 351.57 66.07 353.76 66.08 355.95 C66.1 360.1 66.13 364.25 66.16 368.39 C66.17 370.26 66.18 372.12 66.19 373.99 C66.2 374.83 66.21 375.67 66.22 376.54 C66.23 380.83 65.99 384.09 64 388 C55.84 388.07 47.68 388.12 39.51 388.16 C35.72 388.17 31.93 388.19 28.14 388.23 C24.49 388.26 20.83 388.28 17.17 388.28 C15.78 388.29 14.38 388.3 12.98 388.32 C11.03 388.34 9.08 388.34 7.12 388.34 C6.01 388.35 4.9 388.35 3.75 388.36 C1 388 1 388 -0.65 386.87 C-2.62 384.14 -2.37 382.04 -2.37 378.69 C-2.38 378.05 -2.38 377.4 -2.39 376.74 C-2.4 374.56 -2.39 372.38 -2.37 370.2 C-2.38 368.63 -2.38 367.06 -2.39 365.49 C-2.4 361.16 -2.39 356.83 -2.38 352.5 C-2.37 347.83 -2.38 343.17 -2.38 338.51 C-2.39 329.36 -2.39 320.22 -2.37 311.08 C-2.36 300.44 -2.36 289.8 -2.36 279.16 C-2.37 260.17 -2.36 241.19 -2.34 222.21 C-2.32 203.78 -2.31 185.35 -2.32 166.92 C-2.32 146.86 -2.32 126.81 -2.31 106.76 C-2.31 104.62 -2.31 102.48 -2.31 100.34 C-2.31 99.29 -2.31 98.24 -2.3 97.16 C-2.3 89.74 -2.3 82.31 -2.3 74.89 C-2.31 65.85 -2.3 56.81 -2.29 47.76 C-2.28 43.15 -2.27 38.53 -2.28 33.92 C-2.28 29.69 -2.28 25.47 -2.27 21.25 C-2.26 19.72 -2.26 18.19 -2.27 16.66 C-2.27 14.58 -2.26 12.51 -2.25 10.43 C-2.25 9.28 -2.25 8.13 -2.25 6.94 C-2.01 4.08 -1.49 2.42 0 0 Z " fill="#C82429" transform="translate(314,422)"/>
<path d="M0 0 C2.56 3.35 3.72 6.86 4.88 10.88 C6.35 15.85 7.9 20.78 9.56 25.69 C14.49 40.37 14.49 40.37 16 47.75 C16.58 50.53 17.19 52.36 18.5 54.94 C19.91 57.81 20.45 59.95 21 63.06 C21.53 66.05 21.92 67.87 23.5 70.5 C25.46 73.77 25.81 76.93 26.47 80.66 C26.9 83.13 26.9 83.13 28.5 85.5 C30.01 88.02 30.38 89.53 30.88 92.38 C31.71 97.06 33.01 101.49 34.5 106 C34.71 106.66 34.93 107.32 35.15 108 C36.12 110.89 36.81 112.81 39 115 C42.62 108.27 44.69 101.41 46.44 94 C47.56 89.37 49.06 85.24 51.09 80.95 C52.3 78.36 53.15 75.72 54 73 C54.5 71.5 55 70 55.5 68.5 C55.76 67.73 56.02 66.95 56.28 66.16 C59.33 57 62.39 47.84 65.44 38.69 C65.69 37.92 65.95 37.15 66.21 36.36 C66.73 34.8 67.26 33.23 67.79 31.67 C70.42 23.89 70.42 23.89 72.44 15.94 C73.26 13.11 74.69 10.63 76 8 C76.68 6 77.35 4 78 2 C79.94 0.06 83.59 0.7 86.25 0.61 C86.97 0.59 87.7 0.56 88.45 0.54 C89.99 0.48 91.53 0.43 93.06 0.39 C95.42 0.31 97.78 0.22 100.14 0.13 C101.64 0.08 103.13 0.03 104.62 -0.01 C105.68 -0.06 105.68 -0.06 106.77 -0.1 C108.51 -0.14 110.26 -0.08 112 0 C114.62 2.62 114.3 3.81 114.41 7.48 C114.47 9.29 114.47 9.29 114.53 11.14 C114.56 12.52 114.59 13.91 114.62 15.29 C114.64 16.01 114.65 16.73 114.67 17.48 C115.3 42.04 115.15 66.62 115.13 91.2 C115.12 96 115.13 100.8 115.13 105.6 C115.17 157.5 115.17 157.5 114.62 180.73 C114.6 181.48 114.59 182.22 114.57 183 C114.53 185.03 114.47 187.06 114.41 189.1 C114.38 190.2 114.35 191.31 114.32 192.45 C114 195 114 195 112 197 C110.06 197.26 110.06 197.26 107.72 197.27 C106.88 197.27 106.04 197.27 105.17 197.27 C104.29 197.27 103.41 197.26 102.5 197.25 C101.62 197.26 100.74 197.27 99.83 197.27 C98.99 197.27 98.15 197.27 97.28 197.27 C96.51 197.26 95.74 197.26 94.94 197.26 C93 197 93 197 91 195 C90.72 192.24 90.72 192.24 90.68 188.65 C90.67 187.66 90.67 187.66 90.65 186.65 C90.62 184.43 90.61 182.21 90.59 179.99 C90.57 178.41 90.55 176.82 90.53 175.23 C90.48 170.92 90.43 166.6 90.39 162.29 C90.35 157.78 90.29 153.27 90.24 148.77 C90.14 140.23 90.05 131.69 89.97 123.15 C89.87 113.43 89.76 103.71 89.65 93.99 C89.42 73.99 89.2 54 89 34 C88.01 34.5 88.01 34.5 87 35 C86.43 37.15 86.43 37.15 86 40 C82.45 58.33 82.45 58.33 78 65 C77.47 66.86 76.99 68.74 76.56 70.62 C74.6 79.18 71.54 87.36 68.62 95.62 C63.01 111.64 57.89 127.75 53 144 C48.75 144.15 44.5 144.23 40.25 144.31 C39.04 144.35 37.84 144.4 36.59 144.44 C35.43 144.46 34.27 144.47 33.08 144.49 C32.01 144.51 30.94 144.54 29.84 144.57 C27 144 27 144 24.74 141.84 C22.95 138.91 21.97 136.41 21.06 133.11 C19.67 128.3 18.21 123.54 16.6 118.8 C15.98 116.97 15.98 116.97 15.35 115.1 C15.14 114.48 14.93 113.86 14.71 113.22 C11.38 103.39 8.11 93.56 5.53 83.49 C4.39 79.08 2.84 75.15 1 71 C0.52 69.68 0.06 68.34 -0.38 67 C-0.62 66.24 -0.87 65.49 -1.12 64.71 C-1.41 63.82 -1.7 62.92 -2 62 C-2.81 59.54 -3.62 57.08 -4.44 54.62 C-4.83 53.44 -5.22 52.26 -5.62 51.04 C-7.34 46 -9.18 41 -11 36 C-11.33 88.8 -11.66 141.6 -12 196 C-15.77 197.89 -20.35 197.18 -24.5 197.19 C-25.48 197.2 -26.45 197.21 -27.46 197.22 C-28.39 197.23 -29.32 197.23 -30.28 197.23 C-31.14 197.23 -31.99 197.24 -32.88 197.24 C-35 197 -35 197 -37 195 C-37.19 192.43 -37.26 189.97 -37.24 187.39 C-37.24 186.6 -37.24 185.81 -37.25 184.99 C-37.25 182.31 -37.24 179.64 -37.23 176.96 C-37.23 175.05 -37.23 173.14 -37.23 171.23 C-37.23 166.03 -37.22 160.83 -37.2 155.62 C-37.19 150.19 -37.19 144.76 -37.19 139.33 C-37.18 129.04 -37.16 118.74 -37.14 108.45 C-37.12 96.74 -37.11 85.02 -37.1 73.31 C-37.08 49.21 -37.04 25.1 -37 1 C-32.37 0.86 -27.75 0.71 -23.12 0.57 C-21.55 0.52 -19.97 0.48 -18.4 0.43 C-16.14 0.36 -13.87 0.29 -11.61 0.22 C-10.91 0.2 -10.21 0.18 -9.48 0.15 C-6.32 0.06 -3.17 0 0 0 Z " fill="#367620" transform="translate(579,366)"/>
<path d="M0 0 C2.18 -0.34 2.18 -0.34 4.91 -0.28 C5.94 -0.27 6.97 -0.25 8.02 -0.24 C9.14 -0.21 10.26 -0.18 11.41 -0.14 C12.57 -0.12 13.72 -0.1 14.91 -0.08 C17.37 -0.03 19.83 0.03 22.29 0.09 C25.99 0.19 29.7 0.26 33.41 0.32 C69.52 1.05 69.52 1.05 76 7 C77.15 7.68 78.31 8.33 79.5 8.94 C85.76 12.45 89.5 17.33 92 24 C92 24.99 92 25.98 92 27 C92.66 27 93.32 27 94 27 C96.02 30.02 96.33 31.11 96.67 34.58 C96.8 35.94 96.8 35.94 96.94 37.33 C97.06 38.77 97.06 38.77 97.19 40.25 C97.27 41.23 97.36 42.22 97.45 43.23 C98.22 52.96 98.04 62.42 96 72 C95.9 72.76 95.79 73.53 95.69 74.31 C94.23 80.01 91.01 84.99 88 90 C87.5 91.49 87.5 91.49 87 93 C77.5 103 65.1 109.53 51.23 110.18 C46.95 110.24 42.68 110.19 38.41 110.14 C36.91 110.13 35.41 110.12 33.91 110.11 C30.27 110.08 26.64 110.05 23 110 C23 111.05 23 112.09 23.01 113.17 C23.03 123.01 23.04 132.86 23.05 142.7 C23.06 147.76 23.06 152.82 23.08 157.89 C23.09 162.77 23.09 167.65 23.09 172.53 C23.1 174.4 23.1 176.26 23.11 178.13 C23.11 180.73 23.11 183.34 23.11 185.95 C23.12 186.72 23.12 187.5 23.12 188.3 C23.12 191.47 23.01 193.97 22 197 C18.38 197.03 14.75 197.05 11.12 197.06 C10.09 197.07 9.06 197.08 8 197.09 C7.01 197.09 6.02 197.09 5.01 197.1 C4.1 197.1 3.19 197.11 2.25 197.11 C0 197 0 197 -2 196 C-2.05 170.89 -2.08 145.78 -2.1 120.66 C-2.11 109 -2.13 97.34 -2.15 85.68 C-2.17 75.53 -2.18 65.37 -2.19 55.21 C-2.19 49.82 -2.2 44.44 -2.21 39.06 C-2.22 34 -2.23 28.94 -2.23 23.87 C-2.23 22.01 -2.23 20.15 -2.24 18.29 C-2.25 15.76 -2.25 13.22 -2.24 10.69 C-2.25 9.95 -2.25 9.2 -2.26 8.44 C-2.24 4.73 -2.11 3.17 0 0 Z " fill="#367620" transform="translate(734,366)"/>
<path d="M0 0 C2.06 0.44 2.06 0.44 4 1 C6.29 8 6.29 8 5 12 C5.5 13.49 5.5 13.49 6 15 C6.13 18.68 6.17 21.49 5 25 C5.46 27.73 5.46 27.73 6.31 30.62 C6.58 31.61 6.84 32.59 7.11 33.6 C7.75 36.16 7.75 36.16 10 37 C9.56 37.87 9.11 38.74 8.65 39.63 C8.09 40.79 7.52 41.94 6.94 43.12 C6.37 44.26 5.8 45.4 5.21 46.57 C3.83 50.47 3.73 52.09 5 56 C6.47 58.41 7.93 60.58 9.62 62.81 C10.3 63.73 10.3 63.73 10.98 64.66 C14.14 68.94 17.42 73.13 20.82 77.23 C22 79 22 79 22 82 C23.49 82.5 23.49 82.5 25 83 C26.58 85.41 26.58 85.41 28.25 88.5 C30.94 93.28 33.81 97.54 37.25 101.8 C39.71 104.9 41.93 108.15 44.18 111.4 C46.09 114.13 48.04 116.81 50 119.5 C55.02 126.39 59.95 133.29 64.5 140.5 C68.56 146.93 72.84 153.17 77.44 159.22 C77.86 159.77 78.27 160.31 78.7 160.87 C79.88 162.43 81.08 163.98 82.28 165.53 C84 168 84 168 84 170 C84.99 170.33 85.98 170.66 87 171 C87 171.99 87 172.98 87 174 C87.76 174.21 88.51 174.43 89.29 174.64 C94.39 177.19 96.06 182.88 98 188 C98.48 190.66 98.42 192.31 98 195 C95.86 197.14 91.15 196.19 88.19 196.19 C87.37 196.2 86.55 196.21 85.7 196.22 C84.51 196.23 84.51 196.23 83.29 196.23 C82.57 196.23 81.84 196.24 81.09 196.24 C78.7 195.97 77.08 195.18 75 194 C76.43 184.01 76.43 184.01 79.56 180 C81.42 177.41 81.64 175.13 82 172 C80.68 172 79.36 172 78 172 C77.01 174.64 76.02 177.28 75 180 C73.68 179.67 72.36 179.34 71 179 C68 173.96 68 173.96 68 171 C61.73 171 55.46 171 49 171 C48.01 174.3 47.02 177.6 46 181 C45.34 181 44.68 181 44 181 C42.35 177.7 40.7 174.4 39 171 C38.01 171 37.02 171 36 171 C36.34 177.14 37.9 181.27 40.94 186.61 C42.12 189.27 42.2 191.12 42 194 C35.43 197.04 28.33 196.8 21.38 195.12 C19 194 19 194 17 192 C17.62 191.36 18.24 190.72 18.88 190.06 C20.98 187.03 21.28 185.97 21.75 182.5 C22.28 179.53 22.62 178.34 24.9 176.31 C26.89 175.08 28.87 173.98 31 173 C30.34 172.34 29.68 171.68 29 171 C26.78 170.98 26.78 170.98 24.38 171.38 C23.56 171.49 22.74 171.6 21.9 171.71 C21.27 171.81 20.65 171.9 20 172 C19.9 172.95 19.79 173.9 19.69 174.88 C19 178 19 178 16 180 C12.14 177.43 12.06 175.39 11 171 C8.36 171 5.72 171 3 171 C3.47 171.53 3.94 172.07 4.43 172.62 C9.09 178.2 11.27 182.99 13 190 C13.64 191.68 14.29 193.35 15 195 C10.46 195.84 5.99 196.17 1.38 196.31 C-0.25 196.37 -0.25 196.37 -1.91 196.43 C-5.66 195.91 -7.29 194.56 -10 192 C-9.71 191.45 -9.42 190.89 -9.12 190.32 C-8.57 189.23 -8.57 189.23 -8 188.12 C-7.44 187.05 -7.44 187.05 -6.88 185.95 C-5.86 184.05 -5.86 184.05 -6 182 C-7.09 181.65 -8.19 181.3 -9.31 180.94 C-11.27 180.13 -11.27 180.13 -13 179 C-13.47 177.8 -13.95 176.61 -14.44 175.38 C-14.95 174.26 -15.47 173.15 -16 172 C-18.79 171.04 -21 171.05 -24 171 C-23.22 171.74 -22.43 172.49 -21.62 173.25 C-17.51 177.56 -16.61 181.35 -15.56 187.07 C-15.38 187.71 -15.19 188.35 -15 189 C-14.34 189.33 -13.68 189.66 -13 190 C-13 190.99 -13 191.98 -13 193 C-12.34 193.33 -11.68 193.66 -11 194 C-15.37 196.47 -19.08 196.33 -24 196.31 C-25.21 196.34 -25.21 196.34 -26.45 196.36 C-32.38 196.37 -32.38 196.37 -35.56 194.48 C-36.04 193.99 -36.51 193.5 -37 193 C-36.74 191.41 -36.47 189.83 -36.19 188.25 C-36.04 187.37 -35.89 186.49 -35.73 185.58 C-34.94 182.77 -33.81 181.25 -32 179 C-29.8 174.68 -29.8 174.68 -29 170 C-31.31 170.33 -33.62 170.66 -36 171 C-36.33 173.97 -36.66 176.94 -37 180 C-38.32 180.33 -39.64 180.66 -41 181 C-41.2 180.43 -41.41 179.87 -41.62 179.29 C-41.89 178.55 -42.16 177.82 -42.44 177.06 C-42.7 176.33 -42.97 175.6 -43.25 174.85 C-43.85 173.02 -43.85 173.02 -45 172 C-46.49 171.91 -47.98 171.89 -49.47 171.9 C-50.37 171.91 -51.27 171.91 -52.2 171.91 C-53.14 171.92 -54.09 171.93 -55.06 171.94 C-56.01 171.94 -56.96 171.95 -57.94 171.95 C-60.29 171.96 -62.65 171.98 -65 172 C-65.33 174.31 -65.66 176.62 -66 179 C-67.32 179 -68.64 179 -70 179 C-70.39 177.91 -70.78 176.81 -71.19 175.69 C-72.7 172.09 -74.4 170.65 -78 169 C-71.94 156.29 -71.94 156.29 -67 153 C-66.69 152.05 -66.38 151.1 -66.06 150.12 C-64.88 146.64 -63.59 145.54 -61 143 C-56.63 137.25 -52.79 131.14 -49 125 C-46.12 120.49 -42.94 116.32 -39.59 112.15 C-37.95 110.07 -37.95 110.07 -36.92 107.77 C-36 106 -36 106 -33.88 105.25 C-33.26 105.17 -32.64 105.08 -32 105 C-32.15 103.92 -32.15 103.92 -32.31 102.81 C-31.87 98.85 -29.83 97.77 -27 95 C-26.1 93.5 -25.25 91.98 -24.44 90.44 C-22.64 87.03 -20.88 84.6 -18 82 C-14.66 78.26 -12.96 74.59 -11 70 C-10.03 68.98 -9.02 67.98 -8 67 C-3.67 61.66 -0.33 56.29 0.38 49.31 C0.29 46.03 0.29 46.03 -1.5 44 C-3.79 40.95 -3.45 38.7 -3 35 C-1.06 32.25 -1.06 32.25 1 30 C1.5 28.51 1.5 28.51 2 27 C1.34 27 0.68 27 0 27 C-1.3 24.4 -1.13 22.49 -1.13 19.59 C-1.13 18.52 -1.14 17.45 -1.14 16.34 C-1.13 15.22 -1.13 14.09 -1.12 12.94 C-1.13 11.81 -1.13 10.68 -1.14 9.52 C-1.14 8.45 -1.13 7.38 -1.13 6.28 C-1.13 5.29 -1.13 4.3 -1.13 3.28 C-1 1 -1 1 0 0 Z " fill="#C82429" transform="translate(632,119)"/>
<path d="M0 0 C0.88 0 1.76 0 2.67 0 C3.68 -0 4.7 -0.01 5.74 -0.01 C6.86 -0 7.99 0 9.14 0.01 C10.33 0.01 11.51 0 12.74 0 C16.04 -0 19.34 0.01 22.64 0.02 C26.2 0.02 29.76 0.02 33.31 0.02 C39.48 0.02 45.64 0.03 51.81 0.04 C60.73 0.05 69.64 0.06 78.56 0.06 C93.02 0.07 107.48 0.08 121.94 0.1 C136 0.12 150.05 0.13 164.1 0.14 C164.97 0.14 165.83 0.14 166.72 0.14 C171.07 0.14 175.41 0.15 179.75 0.15 C215.8 0.17 251.85 0.2 287.89 0.25 C289.35 3.17 289 5.75 288.99 9.01 C288.99 10 288.99 10 288.99 11.02 C288.98 13.13 288.97 15.25 288.95 17.37 C288.95 18.81 288.95 20.25 288.94 21.68 C288.93 25.2 288.91 28.73 288.89 32.25 C285.83 33.14 283.1 33.37 279.92 33.37 C278.41 33.37 278.41 33.37 276.86 33.38 C275.76 33.37 274.65 33.37 273.52 33.37 C272.34 33.37 271.16 33.37 269.95 33.37 C266.69 33.37 263.43 33.37 260.16 33.36 C256.65 33.36 253.13 33.36 249.61 33.36 C243.51 33.36 237.41 33.36 231.32 33.35 C222.5 33.35 213.69 33.34 204.87 33.34 C190.57 33.34 176.27 33.33 161.97 33.32 C148.08 33.31 134.18 33.31 120.29 33.3 C119.44 33.3 118.58 33.3 117.7 33.3 C113.4 33.3 109.11 33.3 104.81 33.3 C69.17 33.29 33.53 33.27 -2.11 33.25 C-2.11 32.59 -2.11 31.93 -2.11 31.25 C-2.77 31.25 -3.43 31.25 -4.11 31.25 C-4.16 27.16 -4.19 23.06 -4.22 18.97 C-4.23 17.58 -4.24 16.18 -4.26 14.79 C-4.28 12.79 -4.29 10.79 -4.3 8.79 C-4.31 7.58 -4.32 6.38 -4.33 5.14 C-4.07 1.72 -3.54 0.42 0 0 Z " fill="#C82429" transform="translate(492.10788547992706,318.7516030073166)"/>
<path d="M0 0 C6.56 4.67 9.22 11.5 11.69 18.91 C12.35 18.91 13.01 18.91 13.69 18.91 C17.11 30.09 17.35 40.71 14.34 51.97 C13.43 56.1 13.44 59.86 14.69 63.91 C15.19 64.66 15.69 65.4 16.2 66.17 C17.92 69.34 18.05 71.23 18.03 74.81 C18.03 75.97 18.03 77.13 18.03 78.32 C18.01 79.57 18 80.81 17.98 82.09 C17.98 83.37 17.97 84.65 17.97 85.97 C17.96 89.36 17.93 92.75 17.89 96.14 C17.86 99.61 17.85 103.08 17.83 106.54 C17.8 113.33 17.75 120.12 17.69 126.91 C15.71 125.92 15.71 125.92 13.69 124.91 C13.66 123.67 13.64 122.43 13.61 121.16 C13.52 116.51 13.42 111.85 13.32 107.2 C13.27 105.2 13.23 103.19 13.19 101.19 C14.19 83.02 14.19 83.02 9.62 66.29 C7.04 61.79 7.01 58 7.69 52.91 C8.01 52.01 8.34 51.11 8.68 50.18 C11.11 42.31 11.18 32.22 8.48 24.44 C7.03 21.78 5.47 19.36 3.69 16.91 C2.94 15.69 2.19 14.46 1.44 13.23 C0.86 12.46 0.28 11.7 -0.31 10.91 C-0.97 10.91 -1.63 10.91 -2.31 10.91 C-2.64 11.9 -2.97 12.89 -3.31 13.91 C-2.65 13.91 -1.99 13.91 -1.31 13.91 C-0.66 15.18 -0.02 16.45 0.62 17.73 C1.16 18.79 1.16 18.79 1.71 19.87 C2.69 21.91 2.69 21.91 3.69 24.91 C4.35 25.24 5.01 25.57 5.69 25.91 C5.67 27.05 5.65 28.18 5.62 29.35 C5.6 32.37 5.87 35.13 6.38 38.1 C7.34 45.84 4.69 53.85 1.69 60.91 C2.29 61.59 2.88 62.28 3.5 62.98 C8.79 70.09 9.13 76 9.09 84.65 C9.09 85.76 9.09 86.88 9.09 88.03 C9.1 90.37 9.09 92.72 9.08 95.07 C9.06 98.67 9.08 102.26 9.1 105.86 C9.1 108.15 9.09 110.43 9.09 112.71 C9.09 113.79 9.1 114.87 9.1 115.98 C9.09 117.48 9.09 117.48 9.08 119 C9.07 119.88 9.07 120.76 9.07 121.66 C8.69 123.91 8.69 123.91 7.48 125.7 C5.07 127.33 3.49 127.28 0.59 127.27 C-0.45 127.27 -1.49 127.28 -2.55 127.28 C-3.67 127.27 -4.79 127.25 -5.95 127.24 C-7.67 127.24 -7.67 127.24 -9.42 127.24 C-11.85 127.23 -14.27 127.22 -16.7 127.2 C-20.43 127.16 -24.16 127.15 -27.89 127.15 C-30.24 127.14 -32.59 127.13 -34.95 127.12 C-36.07 127.11 -37.19 127.11 -38.35 127.1 C-39.38 127.09 -40.41 127.09 -41.47 127.08 C-42.39 127.07 -43.3 127.06 -44.24 127.05 C-46.31 126.91 -46.31 126.91 -47.31 125.91 C-47.43 124.24 -47.47 122.56 -47.49 120.88 C-47.5 119.8 -47.52 118.73 -47.53 117.62 C-47.54 116.45 -47.54 115.27 -47.55 114.07 C-47.56 112.87 -47.57 111.67 -47.58 110.43 C-47.59 107.88 -47.6 105.33 -47.61 102.78 C-47.62 98.89 -47.67 95.01 -47.71 91.12 C-47.72 88.64 -47.73 86.17 -47.74 83.69 C-47.76 82.53 -47.77 81.37 -47.79 80.18 C-47.77 73.34 -46.93 68.71 -43.31 62.91 C-42.06 60.96 -42.06 60.96 -41.31 58.91 C-42 57.21 -42.7 55.51 -43.51 53.86 C-44.84 50.63 -44.96 47.37 -45.31 43.91 C-45.64 43.25 -45.97 42.59 -46.31 41.91 C-45.65 41.91 -44.99 41.91 -44.31 41.91 C-44.5 41.17 -44.68 40.43 -44.88 39.66 C-45.88 31.02 -45.34 23.95 -39.99 16.88 C-36.2 12.43 -32.52 8.74 -27.31 5.91 C-26.98 5.58 -26.65 5.25 -26.31 4.91 C-20.63 4.45 -15.62 4.69 -10.31 6.91 C-9.36 7.29 -8.41 7.66 -7.44 8.04 C-6.74 8.33 -6.03 8.62 -5.31 8.91 C-5.31 7.92 -5.31 6.93 -5.31 5.91 C-5.97 5.91 -6.63 5.91 -7.31 5.91 C-7.31 5.25 -7.31 4.59 -7.31 3.91 C-17.07 1.67 -23.87 0.4 -32.92 5.38 C-41.32 10.78 -46.09 18.63 -48.62 28.23 C-50.28 37.23 -49.83 45.8 -46.97 54.48 C-46.26 57.11 -46.06 59.2 -46.31 61.91 C-48.25 64.54 -48.25 64.54 -50.31 66.91 C-54.1 78.27 -52.42 92.72 -52.31 104.6 C-52.29 107.77 -52.27 110.94 -52.25 114.11 C-52.24 114.82 -52.23 115.54 -52.22 116.27 C-52.21 119.95 -52.43 123.33 -53.31 126.91 C-54.3 126.91 -55.29 126.91 -56.31 126.91 C-57.27 124.04 -57.47 122.11 -57.53 119.11 C-57.56 118.14 -57.58 117.16 -57.6 116.16 C-57.63 114.58 -57.63 114.58 -57.66 112.96 C-57.69 111.88 -57.71 110.79 -57.73 109.67 C-57.78 107.37 -57.83 105.07 -57.87 102.76 C-57.94 99.26 -58.01 95.75 -58.09 92.24 C-58.14 90.01 -58.18 87.77 -58.23 85.53 C-58.26 83.96 -58.26 83.96 -58.3 82.37 C-58.56 67.06 -58.56 67.06 -54.62 61.23 C-52.52 57.98 -52.52 57.98 -52.94 54.29 C-53.39 53.51 -53.85 52.72 -54.31 51.91 C-57.43 37.25 -55.38 22.48 -47.55 9.69 C-43.64 4.85 -38.6 2.04 -33.31 -1.09 C-32.65 -1.75 -31.99 -2.41 -31.31 -3.09 C-21.52 -6.68 -8.9 -4.7 0 0 Z " fill="#C82429" transform="translate(654.3125,683.0859375)"/>
<path d="M0 0 C1.38 0.01 2.75 0.03 4.13 0.05 C5.25 0.06 5.25 0.06 6.4 0.08 C8.89 0.1 11.38 0.14 13.87 0.17 C15.59 0.2 17.31 0.22 19.04 0.24 C22.65 0.28 26.27 0.33 29.88 0.39 C34.53 0.45 39.17 0.51 43.81 0.56 C47.37 0.61 50.93 0.65 54.49 0.7 C56.2 0.73 57.92 0.75 59.63 0.77 C62.02 0.8 64.41 0.83 66.8 0.87 C67.51 0.88 68.23 0.88 68.96 0.89 C73.85 0.97 73.85 0.97 74.96 2.09 C75.09 4.75 75.15 7.37 75.15 10.03 C75.16 10.77 75.18 11.51 75.19 12.27 C75.19 14.21 75.09 16.15 74.96 18.09 C72.96 20.09 72.96 20.09 70.76 20.32 C69.84 20.32 68.92 20.31 67.98 20.3 C66.94 20.3 65.9 20.29 64.83 20.29 C63.15 20.27 63.15 20.27 61.43 20.25 C60.28 20.24 59.13 20.24 57.95 20.23 C54.26 20.22 50.58 20.18 46.9 20.15 C43.22 20.12 39.53 20.1 35.84 20.08 C33.55 20.07 31.25 20.05 28.95 20.03 C27.92 20.02 26.88 20.01 25.82 20.01 C24.9 20 23.99 19.99 23.04 19.98 C20.97 19.86 20.97 19.86 19.96 21.09 C19.87 23.14 19.85 25.2 19.85 27.26 C19.85 27.91 19.85 28.55 19.85 29.21 C19.85 31.35 19.86 33.49 19.87 35.62 C19.87 37.1 19.87 38.58 19.87 40.06 C19.87 43.96 19.88 47.85 19.89 51.75 C19.9 55.73 19.91 59.7 19.91 63.68 C19.93 71.48 19.94 79.28 19.96 87.09 C21.23 87.08 22.5 87.08 23.8 87.07 C28.49 87.06 33.17 87.04 37.85 87.03 C39.88 87.03 41.91 87.02 43.94 87.01 C46.86 87 49.77 87 52.68 86.99 C53.59 86.99 54.51 86.98 55.45 86.98 C57.62 86.98 59.79 87.03 61.96 87.09 C62.96 88.09 62.96 88.09 63.06 91.69 C63.05 93.17 63.04 94.66 63.03 96.15 C63.02 96.91 63.02 97.67 63.01 98.45 C63 100.33 62.98 102.21 62.96 104.09 C59.53 105.81 55.58 105.33 51.8 105.41 C50.44 105.44 50.44 105.44 49.05 105.47 C46.15 105.53 43.24 105.59 40.34 105.65 C38.37 105.69 36.41 105.74 34.44 105.78 C29.61 105.89 24.79 105.99 19.96 106.09 C19.95 107.21 19.94 108.34 19.93 109.5 C19.83 120.08 19.73 130.66 19.62 141.24 C19.57 146.68 19.52 152.12 19.47 157.56 C19.42 162.81 19.37 168.05 19.31 173.3 C19.29 175.3 19.27 177.31 19.25 179.32 C19.23 182.12 19.2 184.91 19.17 187.71 C19.16 188.97 19.16 188.97 19.15 190.25 C19.08 195.97 19.08 195.97 17.96 197.09 C14.32 197.34 10.67 197.27 7.03 197.28 C6 197.29 4.97 197.3 3.91 197.31 C2.93 197.32 1.95 197.32 0.94 197.32 C0.03 197.32 -0.87 197.33 -1.81 197.33 C-4.04 197.09 -4.04 197.09 -6.04 195.09 C-6.23 192.59 -6.31 190.21 -6.29 187.71 C-6.3 186.55 -6.3 186.55 -6.3 185.37 C-6.31 182.78 -6.3 180.19 -6.3 177.59 C-6.3 175.74 -6.3 173.88 -6.31 172.03 C-6.32 166.98 -6.31 161.93 -6.31 156.89 C-6.3 151.61 -6.31 146.33 -6.31 141.06 C-6.31 132.19 -6.31 123.33 -6.3 114.46 C-6.29 104.21 -6.29 93.96 -6.3 83.71 C-6.31 74.91 -6.31 66.12 -6.31 57.33 C-6.3 52.07 -6.3 46.81 -6.31 41.56 C-6.32 36.61 -6.31 31.67 -6.3 26.73 C-6.3 24.91 -6.3 23.1 -6.3 21.28 C-6.31 18.81 -6.3 16.33 -6.29 13.85 C-6.3 13.13 -6.3 12.41 -6.3 11.67 C-6.21 0.18 -6.21 0.18 0 0 Z " fill="#387722" transform="translate(442.0367431640625,365.9109802246094)"/>
<path d="M0 0 C0.86 -0 1.72 -0 2.6 -0 C3.51 -0 4.41 0 5.34 0.01 C6.22 0 7.09 0 7.99 -0 C19.87 0.01 29.67 0.96 38.53 9.82 C39.84 12.13 39.84 12.13 39.84 15.13 C40.5 15.13 41.16 15.13 41.84 15.13 C47.65 23.84 46.1 36.11 45.26 46.07 C44.84 48.13 44.84 48.13 42.84 50.13 C42.57 51.62 42.57 51.62 42.28 53.13 C40.31 60.49 33.54 66.47 27.16 70.2 C20.35 73.8 12.96 73.26 5.47 73.2 C4.45 73.19 3.42 73.19 2.37 73.18 C-0.14 73.17 -2.65 73.15 -5.16 73.13 C-6.61 70.23 -6.24 67.74 -6.19 64.5 C-6.18 63.47 -6.18 63.47 -6.17 62.43 C-6.14 60.17 -6.11 57.92 -6.07 55.66 C-6.05 54.1 -6.03 52.53 -6.01 50.97 C-5.96 47.69 -5.91 44.41 -5.86 41.13 C-5.79 36.92 -5.74 32.7 -5.68 28.49 C-5.64 25.26 -5.59 22.03 -5.54 18.8 C-5.52 17.25 -5.5 15.69 -5.48 14.14 C-5.45 11.97 -5.41 9.81 -5.38 7.64 C-5.36 6.41 -5.34 5.17 -5.32 3.9 C-5.06 -0.41 -3.92 0.01 0 0 Z " fill="#FCFCFC" transform="translate(762.15625,384.8671875)"/>
<path d="M0 0 C0.83 -0.01 1.66 -0.01 2.51 -0.02 C3.42 -0.01 4.32 -0.01 5.25 -0 C6.2 -0.01 7.16 -0.01 8.15 -0.02 C11.31 -0.02 14.47 -0.02 17.64 -0.01 C19.84 -0.01 22.04 -0.01 24.24 -0.02 C28.85 -0.02 33.46 -0.02 38.07 -0.01 C43.98 0 49.88 -0 55.79 -0.01 C60.33 -0.02 64.88 -0.02 69.42 -0.01 C71.6 -0.01 73.78 -0.01 75.95 -0.02 C79 -0.02 82.05 -0.02 85.1 -0 C85.99 -0.01 86.89 -0.01 87.82 -0.02 C92.55 0.01 96.36 0.43 100.8 2.25 C100.83 5.07 100.85 7.88 100.86 10.69 C100.87 11.49 100.88 12.3 100.89 13.12 C100.9 15.17 100.85 17.21 100.8 19.25 C99.26 20.79 97.86 20.39 95.71 20.39 C94.83 20.4 93.95 20.41 93.05 20.41 C91.59 20.41 91.59 20.41 90.1 20.42 C88.57 20.42 88.57 20.42 87.01 20.43 C83.62 20.44 80.23 20.45 76.84 20.46 C74.49 20.46 72.15 20.47 69.8 20.47 C64.88 20.48 59.95 20.49 55.03 20.49 C48.71 20.5 42.39 20.52 36.07 20.55 C31.22 20.57 26.37 20.58 21.53 20.58 C19.19 20.58 16.86 20.59 14.53 20.6 C11.28 20.62 8.02 20.62 4.76 20.61 C3.79 20.62 2.83 20.63 1.83 20.64 C0.94 20.63 0.05 20.63 -0.86 20.62 C-2.01 20.62 -2.01 20.62 -3.19 20.63 C-5.78 20.15 -6.66 19.36 -8.2 17.25 C-8.42 14.6 -8.48 12.2 -8.39 9.57 C-8.37 8.86 -8.36 8.16 -8.35 7.44 C-8.31 5.71 -8.26 3.98 -8.2 2.25 C-5.33 0.63 -3.28 0 0 0 Z " fill="#C8262B" transform="translate(320.1990661621094,398.74603271484375)"/>
<path d="M0 0 C2.14 0 4.27 0 6.41 0 C12 0.01 17.59 0.02 23.18 0.03 C28.9 0.04 34.62 0.04 40.34 0.05 C51.53 0.06 62.73 0.08 73.93 0.1 C75.58 3.41 75.03 7.09 74.99 10.72 C74.98 11.52 74.98 12.33 74.97 13.15 C74.96 15.13 74.94 17.12 74.93 19.1 C72.6 20.26 71.28 20.22 68.7 20.22 C67.81 20.22 66.93 20.22 66.01 20.22 C65.04 20.22 64.06 20.21 63.06 20.21 C62.04 20.21 61.01 20.21 59.96 20.21 C56.56 20.21 53.16 20.2 49.76 20.2 C47.41 20.19 45.06 20.19 42.71 20.19 C36.51 20.19 30.31 20.18 24.11 20.17 C17.79 20.16 11.47 20.15 5.15 20.15 C-7.26 20.14 -19.67 20.12 -32.07 20.1 C-33.73 16.79 -33.18 13.11 -33.14 9.47 C-33.13 8.67 -33.13 7.87 -33.12 7.04 C-33.11 5.06 -33.09 3.08 -33.07 1.1 C-22.1 -0.35 -11.04 -0.03 0 0 Z " fill="#C82429" transform="translate(881.07421875,398.90234375)"/>
<path d="M0 0 C14.7 -0.05 29.4 -0.08 44.1 -0.1 C50.92 -0.11 57.75 -0.13 64.57 -0.15 C71.15 -0.17 77.73 -0.18 84.31 -0.19 C86.83 -0.19 89.35 -0.2 91.86 -0.21 C95.37 -0.23 98.89 -0.23 102.4 -0.23 C103.45 -0.23 104.5 -0.24 105.58 -0.25 C107.01 -0.24 107.01 -0.24 108.47 -0.24 C109.72 -0.24 109.72 -0.24 110.99 -0.25 C113 0 113 0 115 2 C115.26 4.79 115.26 4.79 115.28 8.43 C115.28 9.1 115.29 9.76 115.3 10.45 C115.31 12.7 115.32 14.94 115.32 17.19 C115.33 18.8 115.34 20.4 115.35 22.01 C115.38 26.38 115.39 30.75 115.4 35.12 C115.42 39.68 115.45 44.24 115.47 48.81 C115.52 57.45 115.56 66.1 115.59 74.74 C115.63 84.58 115.68 94.42 115.73 104.26 C115.83 124.51 115.92 144.75 116 165 C114.35 164.67 112.7 164.34 111 164 C111 112.52 111 61.04 111 8 C110.34 8 109.68 8 109 8 C109 7.34 109 6.68 109 6 C74.35 6 39.7 6 4 6 C4 58.47 4 110.94 4 165 C3.01 165 2.02 165 1 165 C-0.15 162.7 -0.14 161.39 -0.16 158.83 C-0.17 157.95 -0.18 157.08 -0.19 156.18 C-0.19 155.21 -0.2 154.25 -0.21 153.26 C-0.22 152.25 -0.23 151.23 -0.24 150.19 C-0.27 146.81 -0.29 143.43 -0.32 140.05 C-0.34 137.68 -0.36 135.32 -0.38 132.95 C-0.42 127.96 -0.46 122.97 -0.5 117.98 C-0.55 111.68 -0.6 105.38 -0.66 99.07 C-0.78 85.03 -0.89 70.98 -0.98 56.93 C-0.99 55.07 -1.01 53.21 -1.02 51.35 C-1.05 46.37 -1.07 41.4 -1.09 36.42 C-1.1 35.35 -1.1 34.28 -1.11 33.18 C-1.12 22.11 -0.53 11.05 0 0 Z " fill="#C8252A" transform="translate(577,645)"/>
<path d="M0 0 C6.56 4.67 9.22 11.5 11.69 18.91 C12.35 18.91 13.01 18.91 13.69 18.91 C17.11 30.09 17.35 40.71 14.34 51.97 C13.43 56.1 13.44 59.86 14.69 63.91 C15.19 64.66 15.69 65.4 16.2 66.17 C17.92 69.34 18.05 71.23 18.03 74.81 C18.03 75.97 18.03 77.13 18.03 78.32 C18.01 79.57 18 80.81 17.98 82.09 C17.98 83.37 17.97 84.65 17.97 85.97 C17.96 89.36 17.93 92.75 17.89 96.14 C17.86 99.61 17.85 103.08 17.83 106.54 C17.8 113.33 17.75 120.12 17.69 126.91 C15.71 125.92 15.71 125.92 13.69 124.91 C13.66 123.67 13.64 122.43 13.61 121.16 C13.52 116.51 13.42 111.85 13.32 107.2 C13.27 105.2 13.23 103.19 13.19 101.19 C14.19 83.02 14.19 83.02 9.62 66.29 C7.04 61.79 7.01 58 7.69 52.91 C8.01 52.01 8.34 51.11 8.68 50.18 C11.11 42.31 11.18 32.22 8.48 24.44 C7.03 21.78 5.47 19.36 3.69 16.91 C2.94 15.69 2.19 14.46 1.44 13.23 C0.86 12.46 0.28 11.7 -0.31 10.91 C-0.97 10.91 -1.63 10.91 -2.31 10.91 C-2.97 11.9 -3.63 12.89 -4.31 13.91 C-4.81 12.92 -4.81 12.92 -5.31 11.91 C-6.3 11.25 -7.29 10.59 -8.31 9.91 C-7.65 9.58 -6.99 9.25 -6.31 8.91 C-5.98 7.92 -5.65 6.93 -5.31 5.91 C-5.97 5.91 -6.63 5.91 -7.31 5.91 C-7.31 5.25 -7.31 4.59 -7.31 3.91 C-17.07 1.67 -23.87 0.4 -32.92 5.38 C-41.32 10.78 -46.09 18.63 -48.62 28.23 C-50.28 37.23 -49.83 45.8 -46.97 54.48 C-46.26 57.11 -46.06 59.2 -46.31 61.91 C-48.25 64.54 -48.25 64.54 -50.31 66.91 C-54.1 78.27 -52.42 92.72 -52.31 104.6 C-52.29 107.77 -52.27 110.94 -52.25 114.11 C-52.24 114.82 -52.23 115.54 -52.22 116.27 C-52.21 119.95 -52.43 123.33 -53.31 126.91 C-54.3 126.91 -55.29 126.91 -56.31 126.91 C-57.27 124.04 -57.47 122.11 -57.53 119.11 C-57.56 118.14 -57.58 117.16 -57.6 116.16 C-57.63 114.58 -57.63 114.58 -57.66 112.96 C-57.69 111.88 -57.71 110.79 -57.73 109.67 C-57.78 107.37 -57.83 105.07 -57.87 102.76 C-57.94 99.26 -58.01 95.75 -58.09 92.24 C-58.14 90.01 -58.18 87.77 -58.23 85.53 C-58.26 83.96 -58.26 83.96 -58.3 82.37 C-58.56 67.06 -58.56 67.06 -54.62 61.23 C-52.52 57.98 -52.52 57.98 -52.94 54.29 C-53.39 53.51 -53.85 52.72 -54.31 51.91 C-57.43 37.25 -55.38 22.48 -47.55 9.69 C-43.64 4.85 -38.6 2.04 -33.31 -1.09 C-32.65 -1.75 -31.99 -2.41 -31.31 -3.09 C-21.52 -6.68 -8.9 -4.7 0 0 Z " fill="#C8272C" transform="translate(654.3125,683.0859375)"/>
<path d="M0 0 C0.97 -0.04 1.94 -0.07 2.93 -0.11 C5.56 0.31 5.56 0.31 7.2 1.99 C8.88 4.85 8.94 6.63 8.93 9.94 C8.94 11.1 8.94 12.25 8.95 13.44 C8.94 15.34 8.94 15.34 8.92 17.28 C8.92 18.64 8.93 20 8.93 21.37 C8.94 25.11 8.93 28.85 8.91 32.59 C8.9 36.63 8.9 40.66 8.9 44.69 C8.91 51.68 8.9 58.67 8.88 65.66 C8.86 75.77 8.85 85.88 8.84 95.99 C8.84 112.38 8.82 128.78 8.79 145.18 C8.76 161.11 8.74 177.04 8.73 192.97 C8.73 193.95 8.73 194.93 8.72 195.94 C8.72 200.87 8.72 205.79 8.71 210.72 C8.68 251.58 8.63 292.45 8.56 333.31 C8.23 333.31 7.9 333.31 7.56 333.31 C7.56 293.71 7.56 254.11 7.56 213.31 C6.57 213.31 5.58 213.31 4.56 213.31 C4.56 218.92 4.56 224.53 4.56 230.31 C4.23 230.31 3.9 230.31 3.56 230.31 C2.43 214.34 2.23 198.34 2.03 182.33 C2 179.91 1.97 177.5 1.93 175.08 C1.61 150.61 1.53 126.14 1.54 101.66 C1.54 100.96 1.54 100.26 1.54 99.53 C1.54 85.32 1.55 71.11 1.59 56.9 C1.6 50.83 1.61 44.77 1.62 38.7 C1.62 34.95 1.64 31.2 1.65 27.45 C1.65 25.2 1.66 22.94 1.66 20.68 C1.67 19.65 1.67 18.62 1.68 17.56 C1.68 16.16 1.68 16.16 1.68 14.74 C1.68 13.92 1.68 13.11 1.68 12.28 C1.69 10.23 1.69 10.23 0.56 8.31 C-10.13 7.58 -20.72 7.17 -31.44 7.31 C-31.44 6.65 -31.44 5.99 -31.44 5.31 C-22.86 4.98 -14.28 4.65 -5.44 4.31 C-5.11 3.65 -4.78 2.99 -4.44 2.31 C-5.43 1.98 -6.42 1.65 -7.44 1.31 C-4.86 0.03 -2.87 0.07 0 0 Z " fill="#EDCFCF" transform="translate(880.4375,472.6875)"/>
<path d="M0 0 C0 125.4 0 250.8 0 380 C-0.99 379.67 -1.98 379.34 -3 379 C-3 254.26 -3 129.52 -3 1 C-1 0 -1 0 0 0 Z " fill="#EBBEBE" transform="translate(959,428)"/>
<path d="M0 0 C3.51 0.25 4.76 0.76 7.26 3.29 C10.65 8.33 12.77 13.14 13.73 19.13 C14.09 21.42 14.09 21.42 15.75 24.38 C17.24 27.36 17.81 28.86 17.12 32.12 C14.89 34.74 13.07 35.99 9.64 36.49 C6.62 36.63 3.64 36.62 0.62 36.56 C-0.41 36.57 -1.44 36.58 -2.5 36.58 C-12.55 36.5 -12.55 36.5 -15.88 33.12 C-16.36 30.43 -16.36 30.43 -16.19 27.44 C-16.14 26.44 -16.1 25.45 -16.05 24.43 C-15.99 23.67 -15.93 22.91 -15.88 22.12 C-14.88 22.12 -13.89 22.12 -12.88 22.12 C-12.72 21.2 -12.56 20.27 -12.39 19.31 C-8.97 1.14 -8.97 1.14 0 0 Z " fill="#C8252A" transform="translate(360.875,358.875)"/>
<path d="M0 0 C4.73 3.84 6.42 7.71 8.25 13.31 C8.63 14.39 8.63 14.39 9.02 15.5 C10.67 20.33 11.65 24.9 12 30 C10.32 33.27 9.52 33.83 6 35 C2.73 35.28 -0.54 35.28 -3.81 35.31 C-5.15 35.36 -5.15 35.36 -6.51 35.4 C-12.11 35.45 -15.73 35.03 -20 31 C-21.23 28 -21.18 26.59 -20.22 23.5 C-19.65 22.26 -19.65 22.26 -19.06 21 C-17.4 17.39 -16.93 14.95 -17 11 C-15.56 8.38 -15.56 8.38 -14 6 C-13.67 5.01 -13.34 4.02 -13 3 C-8.63 0.69 -5.01 -0.87 0 0 Z " fill="#C82429" transform="translate(870,360)"/>
<path d="M0 0 C3.65 4.57 5.45 9.41 7.25 14.94 C7.52 15.71 7.79 16.48 8.06 17.28 C9.64 22.05 10.29 25.98 10 31 C4.73 34.23 0.49 34.46 -5.5 34.38 C-6.33 34.39 -7.16 34.4 -8.01 34.41 C-13.07 34.39 -16.64 33.83 -21 31 C-24 26.9 -24 26.9 -24 24 C-23.01 23.34 -22.02 22.68 -21 22 C-19.86 18.87 -19.86 18.87 -19 15.25 C-15.91 3.14 -15.91 3.14 -10.75 0.06 C-6.51 -1.14 -4.19 -1.35 0 0 Z " fill="#C8252A" transform="translate(409,361)"/>
<path d="M0 0 C3.81 6.38 6.69 12.33 8.36 19.59 C8.99 21.95 9.89 23.84 11 26 C11.38 28.56 11.38 28.56 11 31 C7.89 34.05 5.56 34.38 1.28 34.36 C0.18 34.36 -0.91 34.36 -2.04 34.36 C-3.18 34.35 -4.32 34.33 -5.5 34.31 C-7.21 34.32 -7.21 34.32 -8.96 34.32 C-18.21 34.26 -18.21 34.26 -22 32 C-21.67 26.08 -21.17 22.08 -18 17 C-17.69 15.38 -17.43 13.75 -17.19 12.12 C-16.35 7.63 -15.08 4.55 -11.93 1.21 C-8.24 -1.1 -4.18 -0.52 0 0 Z " fill="#C8252A" transform="translate(913,360)"/>
<path d="M0 0 C0.99 0.66 1.98 1.32 3 2 C3.43 4.37 3.43 4.37 3.51 7.48 C3.54 8.68 3.58 9.89 3.61 11.14 C3.64 12.52 3.66 13.91 3.68 15.29 C3.71 16.78 3.75 18.27 3.78 19.76 C4.27 43.56 4.15 67.38 4.13 91.2 C4.12 96 4.13 100.8 4.13 105.6 C4.16 135.41 4.15 165.21 3 195 C1.02 195.99 1.02 195.99 -1 197 C-1 132.65 -1 68.3 -1 2 C-1.66 1.67 -2.32 1.34 -3 1 C-2.01 0.67 -1.02 0.34 0 0 Z " fill="#1B5F09" transform="translate(690,366)"/>
<path d="M0 0 C2.41 2.05 3.85 3.28 4.51 6.43 C4.51 7.35 4.52 8.26 4.52 9.2 C4.53 10.26 4.55 11.31 4.56 12.4 C4.56 13.55 4.55 14.7 4.55 15.88 C4.56 17.1 4.57 18.32 4.58 19.57 C4.6 22.91 4.61 26.26 4.61 29.6 C4.61 33.12 4.64 36.64 4.66 40.17 C4.7 46.87 4.72 53.57 4.73 60.27 C4.75 67.79 4.79 75.32 4.83 82.84 C4.96 108.22 5.02 133.61 5 159 C3.68 159 2.36 159 1 159 C-0.81 157.19 -0.17 154.41 -0.21 151.97 C-0.23 150.66 -0.25 149.35 -0.27 148 C-0.29 146.53 -0.31 145.06 -0.33 143.6 C-0.35 142.06 -0.37 140.53 -0.4 139 C-0.46 134.82 -0.52 130.64 -0.57 126.46 C-0.61 123.86 -0.64 121.25 -0.68 118.64 C-0.8 109.56 -0.92 100.47 -1.04 91.38 C-1.15 82.9 -1.27 74.42 -1.39 65.93 C-1.5 58.66 -1.6 51.39 -1.69 44.12 C-1.75 39.77 -1.81 35.42 -1.87 31.07 C-1.93 26.98 -1.99 22.89 -2.03 18.81 C-2.05 17.3 -2.07 15.8 -2.1 14.3 C-2.13 12.25 -2.15 10.2 -2.17 8.16 C-2.19 6.44 -2.19 6.44 -2.22 4.68 C-2 2 -2 2 0 0 Z " fill="#195E08" transform="translate(670,403)"/>
<path d="M0 0 C1.46 -0.08 2.92 -0.14 4.38 -0.19 C5.19 -0.22 6 -0.26 6.84 -0.29 C7.55 -0.2 8.26 -0.1 9 0 C11.15 3.22 11.25 4.04 11.23 7.75 C11.23 9.19 11.23 9.19 11.23 10.66 C11.22 11.69 11.21 12.73 11.2 13.79 C11.19 14.85 11.19 15.92 11.19 17.01 C11.18 20.4 11.15 23.79 11.12 27.19 C11.11 29.49 11.11 31.79 11.1 34.08 C11.08 39.72 11.04 45.36 11 51 C10.34 51 9.68 51 9 51 C9.5 51.58 9.99 52.15 10.5 52.75 C12 55 12 55 12 59 C8.37 59 4.74 59 1 59 C-0.99 55.03 -1.23 53.73 -1.14 49.5 C-1.12 48.4 -1.09 47.3 -1.07 46.16 C-1.04 44.98 -1.01 43.8 -0.98 42.58 C-0.95 41.36 -0.93 40.15 -0.9 38.9 C-0.82 35.01 -0.72 31.13 -0.62 27.25 C-0.57 24.62 -0.51 21.99 -0.45 19.36 C-0.31 12.9 -0.16 6.45 0 0 Z " fill="#C82429" transform="translate(726,751)"/>
<path d="M0 0 C1 0.02 2 0.05 3.02 0.07 C4.53 0.1 4.53 0.1 6.06 0.12 C6.83 0.15 7.6 0.17 8.4 0.2 C10.57 3.71 10.64 6.55 10.63 10.64 C10.63 11.88 10.63 13.12 10.62 14.4 C10.6 16.34 10.6 16.34 10.59 18.32 C10.59 19.62 10.58 20.92 10.58 22.26 C10.54 31.91 10.54 31.91 9.4 34.2 C6.65 34.3 3.9 34.38 1.15 34.45 C-0.02 34.5 -0.02 34.5 -1.21 34.55 C-6.98 34.65 -6.98 34.65 -10.1 32.38 C-11.96 29.67 -12.31 27.44 -12.6 24.2 C-11.94 24.2 -11.28 24.2 -10.6 24.2 C-10.54 22.98 -10.48 21.76 -10.41 20.51 C-9.75 14.34 -7.39 0.55 0 0 Z " fill="#C8262B" transform="translate(945.6015625,360.8046875)"/>
<path d="M0 0 C0.88 0.15 1.76 0.31 2.66 0.46 C8.55 1.31 14.5 1.36 20.44 1.56 C21.65 1.61 22.85 1.65 24.1 1.69 C27.07 1.8 30.03 1.9 33 2 C33 2.33 33 2.66 33 3 C24.09 3.66 15.18 4.32 6 5 C4.33 10.01 3.75 12.54 3.76 17.57 C3.76 18.87 3.75 20.18 3.75 21.52 C3.76 22.95 3.77 24.39 3.77 25.82 C3.77 27.34 3.77 28.85 3.77 30.37 C3.77 34.48 3.78 38.59 3.8 42.71 C3.81 47.01 3.81 51.31 3.81 55.61 C3.82 63.74 3.84 71.88 3.86 80.02 C3.88 89.29 3.89 98.56 3.9 107.82 C3.92 126.88 3.96 145.94 4 165 C3.01 165 2.02 165 1 165 C-0.15 162.7 -0.14 161.39 -0.16 158.83 C-0.17 157.95 -0.18 157.08 -0.19 156.18 C-0.19 155.21 -0.2 154.25 -0.21 153.26 C-0.22 152.25 -0.23 151.23 -0.24 150.19 C-0.27 146.81 -0.29 143.43 -0.32 140.05 C-0.34 137.68 -0.36 135.32 -0.38 132.95 C-0.42 127.96 -0.46 122.97 -0.5 117.98 C-0.55 111.68 -0.6 105.38 -0.66 99.07 C-1.03 56.88 -1.03 56.88 -1.06 35.82 C-1.06 34.67 -1.06 33.52 -1.07 32.34 C-1.06 21.54 -0.6 10.77 0 0 Z " fill="#C82429" transform="translate(577,645)"/>
<path d="M0 0 C0.78 -0.04 1.56 -0.07 2.36 -0.11 C5.63 0.49 6.67 1.7 8.69 4.31 C9.88 7.37 9.88 7.37 10.81 10.75 C12.11 15.42 12.11 15.42 13.8 19.95 C15.14 23.51 14.82 26.53 14.69 30.31 C8.62 34.72 3.1 35.24 -4.31 34.31 C-5.3 33.65 -6.29 32.99 -7.31 32.31 C-7.68 29.78 -7.68 29.78 -7.68 26.61 C-7.68 25.46 -7.67 24.32 -7.67 23.14 C-7.66 21.94 -7.64 20.74 -7.62 19.5 C-7.63 18.31 -7.63 17.12 -7.63 15.9 C-7.54 0.23 -7.54 0.23 0 0 Z " fill="#C82429" transform="translate(320.3125,360.6875)"/>
<path d="M0 0 C0.74 0.5 0.74 0.5 1.5 1 C5.07 2.43 8.17 2.06 12 2 C13.69 3.69 13.13 5.82 13.13 8.13 C13.14 9.79 13.14 9.79 13.14 11.47 C13.13 12.68 13.13 13.88 13.12 15.12 C13.12 16.36 13.12 17.59 13.12 18.85 C13.05 33.24 12.55 47.62 12 62 C9.03 62 6.06 62 3 62 C0.83 57.65 0.82 54.76 1.02 50.08 C1.05 49.3 1.07 48.52 1.1 47.72 C1.18 45.23 1.28 42.74 1.38 40.25 C1.89 26.18 1.89 26.18 2.16 12.11 C2.18 10.86 2.2 9.6 2.22 8.31 C2.01 5.09 1.39 2.89 0 0 Z " fill="#C8262B" transform="translate(395,748)"/>
<path d="M0 0 C0 0.66 0 1.32 0 2 C0.66 2 1.32 2 2 2 C2 2.99 2 3.98 2 5 C-0.71 4.52 -3.12 3.95 -5.69 2.94 C-10.07 1.7 -14.47 1.28 -19 2 C-20.68 3.39 -20.68 3.39 -22 5 C-22.76 5.41 -23.53 5.83 -24.31 6.25 C-27.93 8.6 -30.43 11.56 -33 15 C-33.81 16.07 -33.81 16.07 -34.64 17.15 C-36.55 21.14 -36.57 24.81 -36.69 29.19 C-36.72 30.01 -36.76 30.83 -36.79 31.67 C-36.99 36.59 -36.9 40.96 -36.12 45.81 C-35.96 46.85 -35.8 47.89 -35.63 48.96 C-35.03 51.83 -34.18 54.32 -33 57 C-33.43 57.35 -33.87 57.7 -34.31 58.06 C-39.91 64.49 -39.47 71.84 -39.51 79.93 C-39.53 81.17 -39.55 82.4 -39.57 83.67 C-39.62 87.59 -39.65 91.51 -39.69 95.44 C-39.72 98.1 -39.76 100.77 -39.79 103.44 C-39.88 109.96 -39.94 116.48 -40 123 C-40.33 123 -40.66 123 -41 123 C-41.33 113.43 -41.66 103.86 -42 94 C-43.32 94 -44.64 94 -46 94 C-46.12 87.2 -46.01 80.42 -45.69 73.62 C-45.6 71.66 -45.6 71.66 -45.51 69.66 C-44.84 64.88 -43.43 61.43 -40 58 C-40.29 53.85 -40.91 50.31 -42.06 46.31 C-44.74 35.95 -43.51 24.11 -38.78 14.53 C-29.2 -1.02 -16.99 -5.85 0 0 Z " fill="#FCFBFB" transform="translate(647,687)"/>
<path d="M0 0 C1.03 3.09 1.13 5.22 1.13 8.47 C1.13 9.58 1.14 10.7 1.14 11.85 C1.14 13.06 1.13 14.26 1.13 15.51 C1.13 16.74 1.13 17.98 1.14 19.25 C1.14 22.54 1.13 25.82 1.13 29.11 C1.12 31.13 1.13 33.14 1.13 35.16 C1.14 39.03 1.14 42.89 1.13 46.76 C1.13 47.97 1.14 49.18 1.14 50.43 C1.14 51.54 1.13 52.65 1.13 53.79 C1.13 54.78 1.13 55.76 1.13 56.77 C1 59 1 59 0 60 C-1.85 60.07 -3.71 60.08 -5.56 60.06 C-6.57 60.05 -7.59 60.04 -8.63 60.04 C-9.8 60.02 -9.8 60.02 -11 60 C-11.5 58.51 -11.5 58.51 -12 57 C-11.67 56.34 -11.34 55.68 -11 55 C-10.92 53.35 -10.9 51.69 -10.92 50.03 C-10.92 49 -10.93 47.96 -10.94 46.9 C-10.95 45.78 -10.96 44.65 -10.97 43.5 C-10.99 41.15 -11 38.79 -11.01 36.44 C-11.03 32.71 -11.06 28.98 -11.1 25.26 C-11.13 21.67 -11.14 18.09 -11.16 14.5 C-11.17 13.38 -11.19 12.26 -11.2 11.1 C-11.2 10.07 -11.21 9.03 -11.21 7.97 C-11.22 7.06 -11.23 6.14 -11.23 5.2 C-11 3 -11 3 -9 1 C-7.09 0.84 -7.09 0.84 -4.94 0.94 C-3.64 0.96 -2.34 0.98 -1 1 C-0.67 0.67 -0.34 0.34 0 0 Z " fill="#C82429" transform="translate(543,750)"/>
<path d="M0 0 C2.5 1.06 2.5 1.06 4.14 4.18 C5.61 7.9 5.86 11.17 5.83 15.19 C5.83 15.86 5.83 16.52 5.82 17.2 C5.81 19.34 5.78 21.48 5.75 23.62 C5.74 25.1 5.73 26.58 5.72 28.05 C5.61 39.74 5.2 51.4 4.5 63.06 C-1.12 63.31 -1.12 63.31 -4.5 61.06 C-4.92 58.6 -4.92 58.6 -4.98 55.45 C-5.02 53.69 -5.02 53.69 -5.07 51.89 C-5.09 50.62 -5.1 49.34 -5.12 48.03 C-5.14 46.73 -5.17 45.43 -5.19 44.09 C-5.24 41.33 -5.29 38.57 -5.32 35.81 C-5.36 32.28 -5.43 28.74 -5.51 25.2 C-5.58 21.83 -5.63 18.46 -5.68 15.09 C-5.71 13.82 -5.74 12.55 -5.76 11.23 C-5.77 10.06 -5.79 8.88 -5.8 7.67 C-5.81 6.64 -5.83 5.6 -5.84 4.53 C-5.73 3.72 -5.62 2.9 -5.5 2.06 C-2.5 0.06 -2.5 0.06 0 0 Z " fill="#C92B30" transform="translate(866.5,746.9375)"/>
<path d="M0 0 C6.05 -0.2 6.05 -0.2 8 0 C10.5 2.5 10.25 3.26 10.26 6.71 C10.27 7.68 10.27 8.66 10.28 9.67 C10.27 10.73 10.27 11.79 10.27 12.89 C10.27 13.98 10.27 15.07 10.27 16.19 C10.27 18.5 10.27 20.82 10.26 23.13 C10.25 26.66 10.26 30.18 10.27 33.71 C10.27 35.96 10.27 38.2 10.27 40.45 C10.27 41.5 10.27 42.55 10.28 43.63 C10.24 49.15 9.84 53.79 8 59 C5.67 59.04 3.33 59.04 1 59 C0 58 0 58 -0.12 55.68 C-0.12 54.65 -0.12 53.62 -0.11 52.56 C-0.11 51.4 -0.11 50.24 -0.11 49.04 C-0.11 47.78 -0.1 46.52 -0.1 45.21 C-0.1 43.93 -0.09 42.64 -0.09 41.32 C-0.09 37.89 -0.08 34.47 -0.07 31.04 C-0.06 27.55 -0.05 24.06 -0.05 20.57 C-0.04 13.71 -0.02 6.86 0 0 Z " fill="#C82429" transform="translate(518,751)"/>
<path d="M0 0 C7.75 -0.12 7.75 -0.12 10 1 C10.03 6.1 10.04 11.2 10.05 16.3 C10.06 18.03 10.07 19.76 10.08 21.48 C10.12 30.52 10.08 39.54 9.62 48.57 C9.59 49.27 9.56 49.98 9.53 50.71 C9.32 54.29 9.04 55.94 7 59 C4.38 59.19 4.38 59.19 2 59 C-0.03 54.13 -1.14 50.25 -1.02 44.96 C-1 43.96 -0.98 42.95 -0.96 41.92 C-0.93 40.85 -0.91 39.78 -0.88 38.67 C-0.86 37.57 -0.83 36.46 -0.81 35.33 C-0.73 31.8 -0.65 28.28 -0.56 24.75 C-0.51 22.36 -0.46 19.97 -0.4 17.58 C-0.28 11.72 -0.14 5.86 0 0 Z " fill="#C82429" transform="translate(742,751)"/>
<path d="M0 0 C4.33 1.49 6 4.68 8.19 8.44 C8.72 9.32 8.72 9.32 9.26 10.21 C12.85 16.21 13.18 20.53 13.19 27.31 C13.2 28.15 13.21 29 13.22 29.87 C13.24 34.7 12.71 38.42 11 43 C10.2 49.04 10.7 52.92 14.05 58.09 C18.76 67.56 16.11 83.34 16.06 93.75 C16.06 95.72 16.05 97.69 16.05 99.66 C16.04 104.44 16.02 109.22 16 114 C14.35 113.34 12.7 112.68 11 112 C11 111.41 11 110.82 11 110.21 C10.98 104.01 10.92 97.81 10.85 91.61 C10.82 89.31 10.81 87 10.8 84.69 C10.8 81.36 10.75 78.03 10.71 74.7 C10.71 73.68 10.71 72.65 10.72 71.6 C10.57 64.28 8.67 59.28 5 53 C3.76 50.85 3.76 50.85 3 49 C3.41 48.32 3.83 47.64 4.25 46.94 C8.39 39.99 8.21 31.99 7.88 24.12 C7.85 23.4 7.83 22.67 7.81 21.93 C7.51 17.04 6.35 14.52 3 11 C1.39 8.26 1 7.24 1 4 C0.34 4 -0.32 4 -1 4 C-0.67 2.68 -0.34 1.36 0 0 Z " fill="#FAF5F5" transform="translate(652,693)"/>
<path d="M0 0 C0.99 0.33 1.98 0.66 3 1 C4.47 1.1 5.95 1.15 7.42 1.16 C8.33 1.17 9.23 1.18 10.16 1.19 C11.15 1.19 12.14 1.2 13.16 1.21 C14.73 1.22 14.73 1.22 16.33 1.24 C19.78 1.27 23.24 1.29 26.7 1.32 C29.09 1.34 31.49 1.36 33.88 1.38 C40.19 1.43 46.5 1.48 52.81 1.53 C59.24 1.58 65.68 1.64 72.11 1.69 C84.74 1.8 97.37 1.9 110 2 C109.67 3.65 109.34 5.3 109 7 C95.23 7.12 81.46 7.2 67.69 7.26 C61.3 7.29 54.91 7.32 48.51 7.38 C42.35 7.43 36.18 7.46 30.02 7.47 C27.66 7.48 25.3 7.5 22.95 7.53 C19.66 7.56 16.36 7.57 13.07 7.57 C12.09 7.59 11.11 7.6 10.1 7.62 C7.63 7.6 5.41 7.55 3 7 C0.83 4.55 0 3.27 0 0 Z " fill="#ECC6C6" transform="translate(312,417)"/>
<path d="M0 0 C12.86 -0.05 25.71 -0.08 38.57 -0.1 C44.54 -0.11 50.51 -0.13 56.48 -0.15 C62.23 -0.17 67.99 -0.18 73.75 -0.19 C75.95 -0.19 78.15 -0.2 80.35 -0.21 C83.42 -0.23 86.5 -0.23 89.57 -0.23 C90.49 -0.23 91.4 -0.24 92.34 -0.25 C93.18 -0.25 94.02 -0.24 94.88 -0.24 C95.61 -0.24 96.34 -0.24 97.08 -0.25 C99 0 99 0 102 2 C101.34 2 100.68 2 100 2 C100 2.66 100 3.32 100 4 C95.72 5.05 91.56 5.14 87.18 5.11 C86.02 5.11 86.02 5.11 84.84 5.11 C82.31 5.11 79.77 5.11 77.23 5.1 C75.47 5.1 73.7 5.09 71.94 5.09 C67.3 5.09 62.67 5.08 58.04 5.07 C53.3 5.06 48.57 5.05 43.84 5.05 C34.56 5.04 25.28 5.02 16 5 C15.67 4.34 15.34 3.68 15 3 C12.29 2.69 9.66 2.49 6.94 2.38 C5.8 2.32 5.8 2.32 4.64 2.26 C2.76 2.16 0.88 2.08 -1 2 C-0.67 1.34 -0.34 0.68 0 0 Z " fill="#ECC7C8" transform="translate(849,419)"/>
<path d="M0 0 C1.48 0 2.95 0.01 4.43 0.02 C5.2 0.02 5.98 0.02 6.78 0.02 C9.26 0.03 11.75 0.04 14.24 0.05 C15.92 0.06 17.6 0.06 19.28 0.06 C23.41 0.08 27.54 0.09 31.67 0.11 C31.67 0.77 31.67 1.43 31.67 2.11 C20.45 2.11 9.23 2.11 -2.33 2.11 C-2.66 80.32 -2.99 158.53 -3.33 239.11 C-3.66 239.11 -3.99 239.11 -4.33 239.11 C-4.66 172.12 -4.99 105.13 -5.33 36.11 C-5.82 38.59 -5.82 38.59 -6.33 41.11 C-7.32 40.78 -8.31 40.45 -9.33 40.11 C-9.33 28.89 -9.33 17.67 -9.33 6.11 C-6.85 6.61 -6.85 6.61 -4.33 7.11 C-4.35 6.14 -4.37 5.17 -4.39 4.18 C-4.3 -0.09 -4.31 0.15 0 0 Z " fill="#EED0D0" transform="translate(389.326416015625,477.886474609375)"/>
<path d="M0 0 C4.18 1.39 6.87 4.06 9.09 7.88 C10.37 10.86 10.85 13.89 11.44 17.07 C11.62 17.71 11.81 18.35 12 19 C12.66 19.33 13.32 19.66 14 20 C14 20.99 14 21.98 14 23 C14.66 23.33 15.32 23.66 16 24 C11.63 26.47 7.92 26.33 3 26.31 C1.79 26.34 1.79 26.34 0.55 26.36 C-5.38 26.37 -5.38 26.37 -8.56 24.48 C-9.04 23.99 -9.51 23.5 -10 23 C-9.74 21.41 -9.47 19.83 -9.19 18.25 C-9.04 17.37 -8.89 16.49 -8.73 15.58 C-7.93 12.76 -6.82 11.26 -5 9 C-4.26 7.62 -3.55 6.23 -2.88 4.81 C-1.1 1.1 -1.1 1.1 0 0 Z " fill="#C92A2F" transform="translate(605,289)"/>
<path d="M0 0 C0.66 0.33 1.32 0.66 2 1 C2 1.66 2 2.32 2 3 C2.99 3.33 3.98 3.66 5 4 C5 4.99 5 5.98 5 7 C6.14 7.32 6.14 7.32 7.29 7.64 C12.39 10.19 14.06 15.88 16 21 C16.48 23.66 16.42 25.31 16 28 C13.86 30.14 9.15 29.19 6.19 29.19 C5.37 29.2 4.55 29.21 3.7 29.22 C2.51 29.23 2.51 29.23 1.29 29.23 C0.57 29.23 -0.16 29.24 -0.91 29.24 C-3.3 28.97 -4.92 28.18 -7 27 C-5.57 17.01 -5.57 17.01 -2.44 13 C-0.55 10.37 -0.27 8.2 0 5 C-0.33 4.01 -0.66 3.02 -1 2 C-0.67 1.34 -0.34 0.68 0 0 Z " fill="#C9292E" transform="translate(714,286)"/>
<path d="M0 0 C6.34 5.48 7.87 12.13 10 20 C7.45 22.58 5.48 23.23 1.96 23.36 C0.43 23.36 -1.1 23.34 -2.62 23.31 C-3.4 23.32 -4.18 23.32 -4.98 23.32 C-10.73 23.27 -10.73 23.27 -13 21 C-13.34 14.22 -12.29 8.29 -8 3 C-5.34 1.58 -2.93 0.83 0 0 Z " fill="#C82429" transform="translate(693,292)"/>
<path d="M0 0 C4.22 3.78 6.52 7.41 8.81 12.56 C9.12 13.22 9.44 13.88 9.76 14.56 C11.33 18 12 20.15 12 24 C-4.81 27.13 -4.81 27.13 -11 23 C-10.54 15.83 -9.56 8.74 -4.4 3.32 C-2.75 1.94 -2.75 1.94 0 0 Z " fill="#C82429" transform="translate(522,290)"/>
<path d="M0 0 C5.55 -0.62 5.55 -0.62 8 0 C11.11 3.11 12.26 6.98 13.69 11.06 C14.12 12.29 14.56 13.52 15.01 14.79 C16 18 16 18 16 21 C8.78 24.3 0.65 23.5 -7 22 C-8 21 -8 21 -8.06 17.94 C-8.04 16.97 -8.02 16 -8 15 C-7.36 14.77 -6.73 14.54 -6.07 14.31 C-3.79 13.17 -3.79 13.17 -3.24 10.72 C-3.12 9.84 -3 8.97 -2.88 8.06 C-2.36 4.53 -2.04 3.06 0 0 Z " fill="#C8252A" transform="translate(574,292)"/>
<path d="M0 0 C3.5 3.11 5.31 6.2 7.25 10.44 C7.77 11.55 8.29 12.66 8.83 13.81 C9.94 16.83 10.26 18.82 10 22 C3.43 25.04 -3.67 24.8 -10.62 23.12 C-13 22 -13 22 -15 20 C-14.38 19.36 -13.76 18.72 -13.12 18.06 C-11.01 15.02 -10.75 14.04 -10.31 10.56 C-9.76 7.4 -9.3 6.27 -6.88 4.09 C-4.63 2.61 -2.38 1.25 0 0 Z " fill="#C82429" transform="translate(664,291)"/>
<path d="M0 0 C4.53 1.93 5.64 6.69 7.41 11.03 C9.05 15.26 9.76 18.57 8.41 23.03 C5.06 24.03 1.96 24.19 -1.53 24.21 C-2.55 24.23 -3.57 24.24 -4.62 24.26 C-7.67 24.02 -9.84 23.31 -12.59 22.03 C-12.59 13.4 -10.48 8.04 -4.76 1.55 C-2.59 0.03 -2.59 0.03 0 0 Z " fill="#C8252A" transform="translate(748.59375,290.97265625)"/>
<path d="M0 0 C5.2 2.08 6.69 6.16 9 11 C10.54 14.82 11.35 17.88 11 22 C8.43 24.57 1.96 24.15 -1.56 24.31 C-6.18 24.29 -8.47 22.89 -12 20 C-11.39 17.04 -10.75 15.62 -9 13 C-8.44 11.49 -7.92 9.97 -7.44 8.44 C-6.72 6.19 -6.06 4.11 -5 2 C-3.68 1.63 -2.34 1.29 -1 1 C-0.67 0.67 -0.34 0.34 0 0 Z " fill="#C8252A" transform="translate(550,291)"/>
<path d="M0 0 C0.92 -0 1.85 -0.01 2.8 -0.01 C4.25 0 4.25 0 5.73 0.02 C6.69 0.01 7.64 0 8.63 -0.01 C9.56 -0.01 10.48 -0 11.44 0 C12.71 0 12.71 0 14 0.01 C16.53 0.28 18.17 1 20.35 2.27 C20.02 2.93 19.69 3.59 19.35 4.27 C16.71 4.27 14.07 4.27 11.35 4.27 C10.37 7.21 10.24 9.05 10.27 12.12 C10.28 13.1 10.28 14.09 10.29 15.1 C10.3 16.16 10.31 17.23 10.32 18.32 C10.34 20.57 10.35 22.81 10.36 25.06 C10.39 28.6 10.41 32.15 10.45 35.69 C10.48 39.11 10.5 42.53 10.51 45.95 C10.53 47 10.54 48.06 10.55 49.15 C10.56 50.14 10.56 51.13 10.56 52.16 C10.57 53.46 10.57 53.46 10.59 54.79 C10.32 57.58 9.5 59.72 8.35 62.27 C7.03 61.94 5.71 61.61 4.35 61.27 C4.35 42.79 4.35 24.31 4.35 5.27 C0.42 3.69 -2.54 2.84 -6.65 2.27 C-4.17 -0.21 -3.41 0.01 0 0 Z " fill="#EBC1C1" transform="translate(522.6484375,747.734375)"/>
<path d="M0 0 C0.33 0.66 0.66 1.32 1 2 C1.99 1.67 2.98 1.34 4 1 C9.29 6.17 11.2 10.93 13 18 C13.64 19.68 14.29 21.35 15 23 C10.46 23.84 5.99 24.17 1.38 24.31 C0.29 24.35 -0.8 24.39 -1.91 24.43 C-5.66 23.91 -7.29 22.56 -10 20 C-9.58 19.22 -9.58 19.22 -9.16 18.43 C-6.87 14.11 -6.87 14.11 -5.56 9.44 C-4.7 5.68 -2.34 3 0 0 Z " fill="#C82429" transform="translate(632,291)"/>
<path d="M0 0 C2.06 0.44 2.06 0.44 4 1 C6.29 8 6.29 8 5 12 C5.33 12.99 5.66 13.98 6 15 C6.13 18.68 6.17 21.49 5 25 C5.46 27.73 5.46 27.73 6.31 30.62 C6.58 31.61 6.84 32.59 7.11 33.6 C7.75 36.16 7.75 36.16 10 37 C9.57 37.88 9.13 38.76 8.69 39.67 C8.13 40.83 7.57 41.99 7 43.19 C6.44 44.34 5.89 45.48 5.31 46.67 C4.08 49.79 3.7 51.7 4 55 C2.51 55.5 2.51 55.5 1 56 C0.96 55.32 0.93 54.65 0.89 53.95 C0.82 53.06 0.76 52.17 0.69 51.25 C0.63 50.37 0.57 49.49 0.51 48.58 C-0.07 45.65 -1.18 44.32 -3 42 C-3.54 37.76 -3.55 35.78 -1.06 32.25 C-0.38 31.51 0.3 30.76 1 30 C1.33 29.01 1.66 28.02 2 27 C1.34 27 0.68 27 0 27 C-1.3 24.4 -1.13 22.49 -1.13 19.59 C-1.13 18.52 -1.14 17.45 -1.14 16.34 C-1.13 15.22 -1.13 14.09 -1.12 12.94 C-1.13 11.81 -1.13 10.68 -1.14 9.52 C-1.14 8.45 -1.13 7.38 -1.13 6.28 C-1.13 5.29 -1.13 4.3 -1.13 3.28 C-1 1 -1 1 0 0 Z " fill="#C92C31" transform="translate(632,119)"/>
<path d="M0 0 C22.44 0 44.88 0 68 0 C68 0.66 68 1.32 68 2 C65.36 2.33 62.72 2.66 60 3 C60 3.99 60 4.98 60 6 C39.54 6 19.08 6 -2 6 C-1.67 5.34 -1.34 4.68 -1 4 C7.41 3.5 7.41 3.5 16 3 C10.72 2.67 5.44 2.34 0 2 C0 1.34 0 0.68 0 0 Z " fill="#D05B5E" transform="translate(584,645)"/>
<path d="M0 0 C1.96 -0.03 3.92 -0.05 5.88 -0.06 C6.97 -0.07 8.06 -0.09 9.18 -0.1 C12 0 12 0 14 1 C14 1.66 14 2.32 14 3 C12.02 3 10.04 3 8 3 C7.97 10.21 7.96 17.42 7.95 24.62 C7.94 27.08 7.93 29.53 7.92 31.98 C7.91 35.51 7.91 39.03 7.9 42.55 C7.9 43.65 7.89 44.75 7.89 45.88 C7.89 47.42 7.89 47.42 7.89 48.98 C7.88 49.88 7.88 50.78 7.88 51.7 C7.91 54.16 7.91 54.16 9 57 C6.39 57.93 5.36 58.15 2.75 57.06 C1.88 56.54 1.88 56.54 1 56 C1 55.34 1 54.68 1 54 C1.66 54 2.32 54 3 54 C3.08 46.79 3.13 39.58 3.16 32.38 C3.18 29.92 3.2 27.47 3.23 25.02 C3.26 21.49 3.28 17.97 3.29 14.45 C3.31 13.35 3.32 12.25 3.34 11.12 C3.34 10.09 3.34 9.07 3.34 8.02 C3.35 7.12 3.35 6.22 3.36 5.3 C2.93 2.57 2.12 1.7 0 0 Z " fill="#EED1D1" transform="translate(734,748)"/>
<path d="M0 0 C3.38 1 3.38 1 5.38 4 C5.6 5.9 5.6 5.9 5.57 8.01 C5.56 8.77 5.56 9.53 5.55 10.31 C5.53 11.09 5.52 11.88 5.5 12.69 C5.49 13.48 5.48 14.28 5.47 15.1 C5.45 17.07 5.41 19.03 5.38 21 C2.14 22.95 0.04 23.18 -3.69 22.75 C-4.54 22.66 -5.4 22.57 -6.29 22.48 C-8.62 22 -8.62 22 -11.62 20 C-10.88 15.25 -10.88 15.25 -8.62 13 C-8.5 11.74 -8.38 10.48 -8.25 9.19 C-7.64 3.6 -6.14 0 0 0 Z " fill="#C8272C" transform="translate(775.625,292)"/>
<path d="M0 0 C3.52 1.37 4.61 2.76 6.56 6 C7.2 8.3 7.68 10.56 8.07 12.91 C8.5 15.29 8.5 15.29 10.56 18 C10.44 20.06 10.44 20.06 9.56 22 C6.64 23.83 4.36 24.27 0.94 24.25 C0.16 24.26 -0.61 24.26 -1.41 24.27 C-3.44 24 -3.44 24 -5.44 22 C-5.88 18.87 -5.76 15.72 -5.75 12.56 C-5.77 11.69 -5.78 10.82 -5.8 9.92 C-5.8 9.08 -5.8 8.24 -5.8 7.38 C-5.8 6.61 -5.81 5.84 -5.81 5.05 C-5.17 1.53 -3.56 0 0 0 Z " fill="#C8252A" transform="translate(494.4375,291)"/>
<path d="M0 0 C0 0.99 0 1.98 0 3 C-1.11 3.47 -2.23 3.95 -3.38 4.44 C-5.79 5.79 -6.8 6.47 -7.77 9.09 C-8.05 10.66 -8.3 12.24 -8.54 13.82 C-9.19 16.89 -10.95 18.68 -13 21 C-13 21.99 -13 22.98 -13 24 C-14.87 23.79 -14.87 23.79 -17 23 C-18.16 20.96 -18.16 20.96 -19.06 18.38 C-19.56 17.02 -19.56 17.02 -20.07 15.64 C-20.53 14.33 -20.53 14.33 -21 13 C-22.69 8.49 -24.43 5.32 -28 2 C-28 1.34 -28 0.68 -28 0 C-26.72 -0.06 -25.44 -0.12 -24.12 -0.19 C-23.05 -0.24 -23.05 -0.24 -21.95 -0.29 C-21.3 -0.2 -20.66 -0.1 -20 0 C-18 3 -18 3 -18 7 C-16.68 7.33 -15.36 7.66 -14 8 C-13.61 6.89 -13.22 5.77 -12.81 4.62 C-11.65 1.94 -11.21 1.14 -8.69 -0.5 C-5.52 -1.09 -3.12 -0.73 0 0 Z " fill="#F9F1F1" transform="translate(663,290)"/>
<path d="M0 0 C0 0.66 0 1.32 0 2 C0.66 2 1.32 2 2 2 C2 2.99 2 3.98 2 5 C-0.71 4.52 -3.12 3.95 -5.69 2.94 C-10.07 1.7 -14.47 1.28 -19 2 C-20.68 3.39 -20.68 3.39 -22 5 C-22.76 5.41 -23.53 5.83 -24.31 6.25 C-29.42 9.57 -33.24 14.6 -36 20 C-36.53 23.01 -36.53 23.01 -36.62 26.12 C-36.8 29.39 -36.96 31.89 -38 35 C-38.99 35 -39.98 35 -41 35 C-42.68 25.33 -41.01 18.16 -35.58 9.98 C-25.41 -2.8 -15.05 -5.18 0 0 Z " fill="#FBF9F9" transform="translate(647,687)"/>
<path d="M0 0 C0.33 0 0.66 0 1 0 C1 1.65 1 3.3 1 5 C1.66 5 2.32 5 3 5 C3.92 7.76 4.12 9.36 4.11 12.2 C4.11 13.04 4.11 13.88 4.11 14.74 C4.11 15.65 4.1 16.55 4.1 17.48 C4.1 18.41 4.09 19.34 4.09 20.29 C4.09 23.26 4.08 26.22 4.06 29.19 C4.06 31.2 4.05 33.21 4.05 35.22 C4.04 40.14 4.02 45.07 4 50 C2.35 49.34 0.7 48.68 -1 48 C-1.03 41.49 -1.04 34.97 -1.05 28.46 C-1.06 26.24 -1.07 24.02 -1.08 21.8 C-1.09 18.62 -1.09 15.44 -1.1 12.26 C-1.1 11.26 -1.11 10.27 -1.11 9.24 C-1.11 8.32 -1.11 7.4 -1.11 6.45 C-1.12 5.64 -1.12 4.82 -1.12 3.99 C-1 2 -1 2 0 0 Z " fill="#EBC3C3" transform="translate(664,757)"/>
<path d="M0 0 C1.69 0 3.37 0.01 5.06 0.02 C6.39 0.02 6.39 0.02 7.75 0.02 C10.59 0.03 13.43 0.04 16.28 0.05 C18.2 0.06 20.12 0.06 22.04 0.06 C26.77 0.08 31.49 0.09 36.21 0.11 C35.88 1.76 35.55 3.41 35.21 5.11 C22.01 5.11 8.81 5.11 -4.79 5.11 C-4.79 0.14 -4.79 0.14 0 0 Z " fill="#165B05" transform="translate(467.785400390625,465.886474609375)"/>
<path d="M0 0 C8.28 0.35 8.28 0.35 11 2.81 C12 5 12 5 12.25 7.06 C12.93 9.46 12.93 9.46 16.56 10.75 C18.26 11.37 18.26 11.37 20 12 C19.78 12.6 19.57 13.21 19.34 13.83 C19.07 14.63 18.79 15.43 18.5 16.25 C18.22 17.04 17.94 17.83 17.66 18.64 C16.82 21.23 16.82 21.23 17 25 C16.01 25 15.02 25 14 25 C14 24.34 14 23.68 14 23 C13.34 23 12.68 23 12 23 C12 22.01 12 21.02 12 20 C11.01 19.67 10.02 19.34 9 19 C8.23 16.42 8.23 16.42 7.62 13.19 C6.58 8.25 6.58 8.25 3.38 4.44 C2.59 3.96 1.81 3.49 1 3 C0.67 2.01 0.34 1.02 0 0 Z " fill="#F9F2F2" transform="translate(607,289)"/>
<path d="M0 0 C2.06 0.44 2.06 0.44 4 1 C6.29 8 6.29 8 5 12 C5.33 12.99 5.66 13.98 6 15 C6.18 19.79 5.77 24.28 5 29 C0.12 27.25 0.12 27.25 -1 25 C-1.1 23.2 -1.13 21.39 -1.13 19.59 C-1.13 18.52 -1.14 17.45 -1.14 16.34 C-1.13 15.22 -1.13 14.09 -1.12 12.94 C-1.13 11.81 -1.13 10.68 -1.14 9.52 C-1.14 8.45 -1.13 7.38 -1.13 6.28 C-1.13 5.29 -1.13 4.3 -1.13 3.28 C-1 1 -1 1 0 0 Z " fill="#CA3237" transform="translate(632,119)"/>
<path d="M0 0 C3.12 1.81 3.12 1.81 5 4 C5 4.99 5 5.98 5 7 C0.15 10.19 -3.29 10.15 -8.83 9.52 C-11 9 -11 9 -13 7 C-12.75 3.94 -12.75 3.94 -12 1 C-8.3 -0.85 -4.04 -0.47 0 0 Z " fill="#FAF6F6" transform="translate(657,341)"/>
<path d="M0 0 C1.6 -0.04 1.6 -0.04 3.24 -0.08 C6.12 0.25 6.12 0.25 8.02 1.6 C9.12 3.25 9.12 3.25 8.94 5.88 C8.12 8.25 8.12 8.25 6.12 9.25 C4.13 9.37 2.13 9.43 0.12 9.44 C-0.95 9.45 -2.02 9.47 -3.12 9.48 C-5.88 9.25 -5.88 9.25 -7.88 7.25 C-7.19 0.56 -6.58 0.09 0 0 Z " fill="#FBF9F9" transform="translate(577.875,340.75)"/>
<path d="M0 0 C0.66 0 1.32 0 2 0 C2 1.98 2 3.96 2 6 C3.32 6.33 4.64 6.66 6 7 C6 8.32 6 9.64 6 11 C6.26 12.98 6.55 14.96 6.88 16.94 C7.04 17.96 7.2 18.98 7.37 20.03 C7.97 22.87 8.84 25.34 10 28 C8.68 28.99 7.36 29.98 6 31 C5.34 30.67 4.68 30.34 4 30 C3.17 27.41 2.49 24.89 1.88 22.25 C1.7 21.49 1.52 20.73 1.33 19.95 C-0.15 13.21 -0.43 6.9 0 0 Z " fill="#F7ECEC" transform="translate(604,716)"/>
<path d="M0 0 C24.75 0 49.5 0 75 0 C76.58 3.16 76.14 6.54 76.12 10 C76.13 10.74 76.13 11.47 76.14 12.23 C76.13 17.75 76.13 17.75 75 20 C74.34 19.67 73.68 19.34 73 19 C72.67 13.39 72.34 7.78 72 2 C48.24 1.67 24.48 1.34 0 1 C0 0.67 0 0.34 0 0 Z " fill="#EED1D1" transform="translate(444,366)"/>
<path d="M0 0 C2.62 2 2.62 2 4 4 C3.5 5.88 3.5 5.88 2 8 C-0.65 8.98 -3.21 9.46 -6 10 C-6 9.34 -6 8.68 -6 8 C-8.31 7.67 -10.62 7.34 -13 7 C-13.33 5.35 -13.66 3.7 -14 2 C-9.48 -0.61 -5.11 -0.73 0 0 Z " fill="#FBF7F7" transform="translate(547,341)"/>
<path d="M0 0 C2.56 1.75 2.56 1.75 4 4 C4 5.32 4 6.64 4 8 C0.37 8.66 -3.26 9.32 -7 10 C-7 9.34 -7 8.68 -7 8 C-8.65 7.67 -10.3 7.34 -12 7 C-13.12 3.25 -13.12 3.25 -12 1 C-7.95 -0.35 -4.23 -0.56 0 0 Z " fill="#FBF7F7" transform="translate(695,341)"/>
<path d="M0 0 C0.66 0.6 1.32 1.2 2 1.81 C2 3.46 2 5.11 2 6.81 C-3.61 6.81 -9.22 6.81 -15 6.81 C-16 3.81 -16 3.81 -15.25 1.69 C-12.08 -3.06 -4.65 -1.84 0 0 Z " fill="#FBF9F9" transform="translate(623,342.1875)"/>
<path d="M0 0 C3.93 -0.02 7.87 -0.04 11.8 -0.05 C13.79 -0.06 15.79 -0.08 17.78 -0.09 C19.04 -0.09 20.29 -0.09 21.58 -0.1 C22.74 -0.1 23.9 -0.11 25.09 -0.11 C28 0 28 0 31 1 C31 1.99 31 2.98 31 4 C20.77 4 10.54 4 0 4 C0 2.68 0 1.36 0 0 Z " fill="#185D07" transform="translate(758,472)"/>
<path d="M0 0 C3 2.31 3 2.31 5 5 C5 5.99 5 6.98 5 8 C-0.28 8 -5.56 8 -11 8 C-11 7.34 -11 6.68 -11 6 C-11.66 6 -12.32 6 -13 6 C-12.67 4.35 -12.34 2.7 -12 1 C-8.12 -0.29 -4.02 -0.73 0 0 Z " fill="#FBF8F8" transform="translate(731,341)"/>
<path d="M0 0 C3 2 3 2 3.62 4.21 C3.75 5.07 3.87 5.93 4 6.81 C4.54 9.99 4.88 11.82 6.62 14.56 C8.7 18.25 8.24 21.86 8 26 C7.34 26 6.68 26 6 26 C2.67 19.33 -0.67 12.67 -4 6 C-2.68 4.02 -1.36 2.04 0 0 Z " fill="#EFD3D3" transform="translate(659,736)"/>
<path d="M0 0 C0.99 0 1.98 0 3 0 C3.85 9.51 4.04 18.48 3 28 C2.01 28 1.02 28 0 28 C-2 26 -2 26 -2.01 22.15 C-1.91 20.56 -1.81 18.97 -1.69 17.38 C-1.64 16.59 -1.59 15.81 -1.54 15 C-1.21 9.97 -0.67 5 0 0 Z " fill="#185C06" transform="translate(828,405)"/>
<path d="M0 0 C0.33 0 0.66 0 1 0 C1 18.15 1 36.3 1 55 C0.67 55 0.34 55 0 55 C-0.33 45.43 -0.66 35.86 -1 26 C-2.32 26 -3.64 26 -5 26 C-5 22.04 -5 18.08 -5 14 C-4.34 14 -3.68 14 -3 14 C-3 14.66 -3 15.32 -3 16 C-2.01 16 -1.02 16 0 16 C0 10.72 0 5.44 0 0 Z " fill="#EED1D1" transform="translate(606,755)"/>
<path d="M0 0 C0.66 0 1.32 0 2 0 C2.03 1.03 2.05 2.06 2.08 3.12 C2.17 6.95 2.27 10.79 2.37 14.62 C2.42 16.28 2.46 17.94 2.5 19.59 C2.56 21.98 2.62 24.37 2.68 26.76 C2.71 27.86 2.71 27.86 2.73 28.98 C2.85 33.07 3.22 36.98 4 41 C2.06 40.69 2.06 40.69 0 40 C-1.28 36.15 -1.02 32.61 -0.88 28.61 C-0.86 27.8 -0.83 26.98 -0.81 26.14 C-0.73 23.53 -0.65 20.92 -0.56 18.31 C-0.51 16.54 -0.46 14.77 -0.4 13.01 C-0.28 8.67 -0.14 4.34 0 0 Z " fill="#CD4A4D" transform="translate(397,769)"/>
<path d="M0 0 C-0.99 0.33 -1.98 0.66 -3 1 C-3 1.99 -3 2.98 -3 4 C-2.01 4 -1.02 4 0 4 C0.66 5.32 1.32 6.64 2 8 C1.01 7.67 0.02 7.34 -1 7 C-3.59 6.76 -6.16 6.58 -8.75 6.44 C-9.5 6.4 -10.24 6.35 -11.01 6.31 C-18.34 5.92 -25.66 5.9 -33 6 C-33 5.34 -33 4.68 -33 4 C-24.42 3.67 -15.84 3.34 -7 3 C-6.67 2.34 -6.34 1.68 -6 1 C-6.99 0.67 -7.98 0.34 -9 0 C-5.93 -1.53 -3.3 -0.55 0 0 Z " fill="#E9B5B6" transform="translate(882,474)"/>
<path d="M0 0 C0.99 0.33 1.98 0.66 3 1 C4.49 4.52 4.11 8.41 4.1 12.17 C4.1 12.85 4.09 13.54 4.09 14.24 C4.09 16.41 4.08 18.58 4.06 20.75 C4.06 22.23 4.05 23.7 4.05 25.18 C4.04 28.78 4.02 32.39 4 36 C3.01 35.67 2.02 35.34 1 35 C1.01 34.15 1.01 33.31 1.02 32.43 C1.03 29.27 1.05 26.1 1.05 22.94 C1.06 21.57 1.07 20.21 1.08 18.84 C1.09 16.87 1.09 14.9 1.1 12.93 C1.1 11.75 1.11 10.56 1.11 9.34 C1 6.14 0.61 3.15 0 0 Z " fill="#F2DADB" transform="translate(870,749)"/>
<path d="M0 0 C0.66 0 1.32 0 2 0 C2 8.58 2 17.16 2 26 C1.01 25.67 0.02 25.34 -1 25 C-1.03 21.02 -1.05 17.04 -1.06 13.06 C-1.07 11.93 -1.08 10.79 -1.09 9.62 C-1.09 8.54 -1.09 7.46 -1.1 6.35 C-1.1 5.35 -1.11 4.35 -1.11 3.32 C-1 1 -1 1 0 0 Z " fill="#D16164" transform="translate(870,755)"/>
<path d="M0 0 C3.23 -0.03 6.46 -0.05 9.69 -0.06 C10.6 -0.07 11.51 -0.08 12.45 -0.09 C13.34 -0.09 14.22 -0.09 15.14 -0.1 C15.95 -0.1 16.76 -0.11 17.6 -0.11 C20.15 0.01 22.51 0.44 25 1 C24.01 2.49 24.01 2.49 23 4 C20.88 4.26 20.88 4.26 18.28 4.11 C17.35 4.06 16.42 4.01 15.46 3.96 C14.48 3.89 13.51 3.82 12.5 3.75 C11.52 3.7 10.55 3.64 9.54 3.59 C2.32 3.16 2.32 3.16 0 2 C0 1.34 0 0.68 0 0 Z " fill="#165B05" transform="translate(759,458)"/>
<path d="M0 0 C1.28 -0.06 2.56 -0.12 3.88 -0.19 C4.95 -0.24 4.95 -0.24 6.05 -0.29 C6.7 -0.2 7.34 -0.1 8 0 C10.72 4.08 10.39 6.15 10 11 C9.01 11.66 8.02 12.32 7 13 C6.38 11.39 6.38 11.39 5.75 9.75 C4.36 6.45 2.63 4.45 0 2 C0 1.34 0 0.68 0 0 Z " fill="#FAF5F5" transform="translate(635,290)"/>
<path d="M0 0 C3.62 1.43 4.94 3.03 6.75 6.44 C7.18 7.22 7.61 8 8.05 8.81 C9 11 9 11 9 14 C8.01 14.33 7.02 14.66 6 15 C5.16 13.73 4.33 12.46 3.5 11.19 C2.8 10.13 2.8 10.13 2.09 9.04 C1 7 1 7 1 4 C0.34 4 -0.32 4 -1 4 C-0.67 2.68 -0.34 1.36 0 0 Z " fill="#F7EBEB" transform="translate(652,693)"/>
<path d="M0 0 C6.05 -0.2 6.05 -0.2 8 0 C10 2 10 2 10.2 3.95 C10.13 5.96 10.07 7.98 10 10 C9.01 10 8.02 10 7 10 C7 9.34 7 8.68 7 8 C6.01 7.67 5.02 7.34 4 7 C4 6.34 4 5.68 4 5 C3.01 5 2.02 5 1 5 C0.67 3.35 0.34 1.7 0 0 Z " fill="#FDFDFD" transform="translate(878,473)"/>
<path d="M0 0 C0.66 0 1.32 0 2 0 C2 0.66 2 1.32 2 2 C3.19 1.97 4.38 1.93 5.61 1.89 C7.18 1.87 8.75 1.84 10.31 1.81 C11.1 1.79 11.88 1.76 12.69 1.74 C13.45 1.73 14.21 1.72 14.99 1.71 C16.03 1.68 16.03 1.68 17.1 1.66 C19 2 19 2 22 5 C14.74 5 7.48 5 0 5 C0 3.33 0 1.67 0 0 Z " fill="#D16063" transform="translate(718,347)"/>
<path d="M0 0 C2.06 0.44 2.06 0.44 4 1 C6.36 8.2 6.36 8.2 5 12 C5 12.99 5 13.98 5 15 C0.79 12.28 0.79 12.28 -1 10 C-1.58 6.93 -1.5 4.08 -1 1 C-0.67 0.67 -0.34 0.34 0 0 Z " fill="#DE8587" transform="translate(632,119)"/>
<path d="M0 0 C0.33 0 0.66 0 1 0 C1 1.65 1 3.3 1 5 C2.32 5.66 3.64 6.32 5 7 C-4.24 7 -13.48 7 -23 7 C-23 6.67 -23 6.34 -23 6 C-21.35 6 -19.7 6 -18 6 C-17.67 5.01 -17.34 4.02 -17 3 C-16.67 3.33 -16.34 3.66 -16 4 C-14.04 4.1 -12.08 4.13 -10.12 4.12 C-9.06 4.13 -7.99 4.13 -6.88 4.13 C-3.93 4.13 -3.93 4.13 -1 3 C-0.67 2.01 -0.34 1.02 0 0 Z " fill="#D67072" transform="translate(588,345)"/>
<path d="M0 0 C0.33 0.66 0.66 1.32 1 2 C6.94 2 12.88 2 19 2 C19.33 2.99 19.66 3.98 20 5 C13.73 5 7.46 5 1 5 C0.34 3.68 -0.32 2.36 -1 1 C-0.67 0.67 -0.34 0.34 0 0 Z " fill="#D16063" transform="translate(607,347)"/>
<path d="M0 0 C0.53 0.25 1.07 0.5 1.62 0.76 C8.24 3.48 12.46 2.66 19 0 C19.33 1.65 19.66 3.3 20 5 C13.73 5 7.46 5 1 5 C0.67 3.35 0.34 1.7 0 0 Z " fill="#D26164" transform="translate(533,347)"/>
<path d="M0 0 C8.25 0 16.5 0 25 0 C24.67 0.99 24.34 1.98 24 3 C16.08 3 8.16 3 0 3 C0 2.01 0 1.02 0 0 Z " fill="#165B05" transform="translate(606,507)"/>
<path d="M0 0 C0.33 0 0.66 0 1 0 C2.61 6.76 3.27 13.05 3 20 C2.01 20.33 1.02 20.66 0 21 C-0.19 18.06 -0.38 15.13 -0.56 12.19 C-0.62 11.35 -0.67 10.52 -0.73 9.66 C-0.78 8.86 -0.83 8.06 -0.88 7.23 C-0.93 6.49 -0.97 5.75 -1.02 4.99 C-1 3 -1 3 0 0 Z " fill="#165B05" transform="translate(809,412)"/>
<path d="M0 0 C1.98 0.66 3.96 1.32 6 2 C6 2.66 6 3.32 6 4 C9.96 3.01 13.92 2.02 18 1 C18.99 2.32 19.98 3.64 21 5 C14.07 5 7.14 5 0 5 C-0.33 3.68 -0.66 2.36 -1 1 C-0.67 0.67 -0.34 0.34 0 0 Z " fill="#D26467" transform="translate(682,347)"/>
<path d="M0 0 C1.32 0.33 2.64 0.66 4 1 C4.03 3.63 4.05 6.25 4.06 8.88 C4.07 9.62 4.08 10.37 4.09 11.14 C4.11 16.77 4.11 16.77 3 19 C2.34 18.67 1.68 18.34 1 18 C0.67 12.06 0.34 6.12 0 0 Z " fill="#8EB181" transform="translate(516,367)"/>
<path d="M0 0 C1.94 0.81 1.94 0.81 4 2 C4.96 4.88 5.11 6.7 5.06 9.69 C5.05 10.5 5.04 11.3 5.04 12.14 C5.02 12.75 5.01 13.37 5 14 C4.34 14 3.68 14 3 14 C-1.08 7.1 -1.08 7.1 -0.75 2.5 C-0.5 1.67 -0.25 0.85 0 0 Z " fill="#FCFBFB" transform="translate(662,748)"/>
<path d="M0 0 C1.48 0 2.95 0.01 4.43 0.02 C5.2 0.02 5.98 0.02 6.78 0.02 C9.26 0.03 11.75 0.04 14.24 0.05 C15.92 0.06 17.6 0.06 19.28 0.06 C23.41 0.08 27.54 0.09 31.67 0.11 C31.67 0.77 31.67 1.43 31.67 2.11 C20.45 2.11 9.23 2.11 -2.33 2.11 C-2.66 3.76 -2.99 5.41 -3.33 7.11 C-3.66 7.11 -3.99 7.11 -4.33 7.11 C-4.37 5.11 -4.37 3.11 -4.33 1.11 C-3.33 0.11 -3.33 0.11 0 0 Z " fill="#ECC7C8" transform="translate(389.326416015625,477.886474609375)"/>
<path d="M0 0 C-0.54 3.8 -2.2 5.47 -5 8 C-6.56 6.81 -6.56 6.81 -8 5 C-7.81 2.38 -7.81 2.38 -7 0 C-4.33 -1.33 -2.83 -0.67 0 0 Z " fill="#FAF4F4" transform="translate(632,290)"/>
<path d="M0 0 C1.2 0.35 2.39 0.7 3.62 1.06 C8.55 2.3 12.22 1.59 17 0 C17.66 0.66 18.32 1.32 19 2 C20.32 2.66 21.64 3.32 23 4 C15.41 4 7.82 4 0 4 C0 2.68 0 1.36 0 0 Z " fill="#D56B6E" transform="translate(644,348)"/>
<path d="M0 0 C1.96 -0.03 3.92 -0.05 5.88 -0.06 C6.97 -0.07 8.06 -0.09 9.18 -0.1 C12 0 12 0 14 1 C14 1.66 14 2.32 14 3 C12.02 3 10.04 3 8 3 C7.67 3.99 7.34 4.98 7 6 C6.01 5.34 5.02 4.68 4 4 C3.67 4.66 3.34 5.32 3 6 C2.81 5.07 2.81 5.07 2.62 4.12 C2.13 1.81 2.13 1.81 0 0 Z " fill="#E18F91" transform="translate(734,748)"/>
<path d="M0 0 C2.08 -0.05 4.17 -0.09 6.25 -0.12 C7.99 -0.16 7.99 -0.16 9.77 -0.2 C12.83 -0.01 14.44 0.39 17 2 C16.67 2.66 16.34 3.32 16 4 C13.71 3.72 11.42 3.42 9.12 3.12 C7.85 2.96 6.57 2.8 5.26 2.63 C2 2 2 2 0 0 Z " fill="#EABABB" transform="translate(526,748)"/>
<path d="M0 0 C4.35 0.1 8.2 1.06 12.38 2.25 C12.38 2.58 12.38 2.91 12.38 3.25 C-0.29 3.43 -0.29 3.43 -5.62 2.25 C-3.62 0.25 -3.62 0.25 0 0 Z " fill="#EED1D1" transform="translate(521.625,747.75)"/>
<path d="M0 0 C2.64 0.33 5.28 0.66 8 1 C7.34 2.32 6.68 3.64 6 5 C5.34 4.67 4.68 4.34 4 4 C1.67 3.96 -0.67 3.96 -3 4 C-2.01 2.68 -1.02 1.36 0 0 Z " fill="#E7AFB0" transform="translate(402,747)"/>
<path d="M0 0 C0.66 0 1.32 0 2 0 C2 2.97 2 5.94 2 9 C3.32 9 4.64 9 6 9 C5.67 10.32 5.34 11.64 5 13 C1.12 11.25 1.12 11.25 0 9 C-0.07 7.46 -0.08 5.92 -0.06 4.38 C-0.05 3.56 -0.04 2.74 -0.04 1.9 C-0.02 1.27 -0.01 0.65 0 0 Z " fill="#D46265" transform="translate(631,135)"/>
<path d="M0 0 C2.38 1.5 2.38 1.5 4 3 C3.01 4.49 3.01 4.49 2 6 C1.67 5.34 1.34 4.68 1 4 C-1.35 3.31 -1.35 3.31 -4.06 2.88 C-4.98 2.71 -5.9 2.54 -6.85 2.37 C-7.56 2.25 -8.27 2.12 -9 2 C-5.51 -0.33 -4.1 -0.42 0 0 Z " fill="#EDCDCD" transform="translate(734,748)"/>
<path d="M0 0 C1.32 0.66 2.64 1.32 4 2 C3.67 3.65 3.34 5.3 3 7 C1.68 6.67 0.36 6.34 -1 6 C-1 2 -1 2 0 0 Z " fill="#FCFBFB" transform="translate(657,739)"/>
<path d="M0 0 C0.33 0.66 0.66 1.32 1 2 C1.99 1.67 2.98 1.34 4 1 C4.66 2.32 5.32 3.64 6 5 C3.39 5.93 2.36 6.15 -0.25 5.06 C-0.83 4.71 -1.4 4.36 -2 4 C-2 3.34 -2 2.68 -2 2 C-1.34 2 -0.68 2 0 2 C0 1.34 0 0.68 0 0 Z " fill="#E8A9AA" transform="translate(737,800)"/>
<path d="M0 0 C0 0.66 0 1.32 0 2 C0.66 2 1.32 2 2 2 C2 2.99 2 3.98 2 5 C-1.81 4.33 -5.35 3.27 -9 2 C-9 1.67 -9 1.34 -9 1 C-5.85 0.3 -3.27 0 0 0 Z " fill="#F7EDED" transform="translate(647,687)"/>
<path d="M0 0 C-0.99 0.33 -1.98 0.66 -3 1 C-3 1.99 -3 2.98 -3 4 C-2.34 4.33 -1.68 4.66 -1 5 C-2.98 5 -4.96 5 -7 5 C-6.67 3.68 -6.34 2.36 -6 1 C-6.99 0.67 -7.98 0.34 -9 0 C-5.93 -1.53 -3.3 -0.55 0 0 Z " fill="#EDCECF" transform="translate(882,474)"/>
<path d="M0 0 C0.66 0 1.32 0 2 0 C2 1.98 2 3.96 2 6 C3.32 6.33 4.64 6.66 6 7 C6 7.66 6 8.32 6 9 C4.35 9.33 2.7 9.66 1 10 C0.38 6.56 0 3.51 0 0 Z " fill="#F0D4D4" transform="translate(604,716)"/>
<path d="M0 0 C5.27 7.9 5.27 7.9 4.69 12.44 C4.46 12.95 4.23 13.47 4 14 C3.34 12.35 2.68 10.7 2 9 C1.34 9 0.68 9 0 9 C-0.84 5.62 -1.11 3.33 0 0 Z " fill="#175C06" transform="translate(581,431)"/>
</svg>
